<svg width="110" height="65" viewBox="0 0 110 65" fill="none" xmlns="http://www.w3.org/2000/svg">
<rect y="4.38965" width="110" height="60" rx="30" fill="white"/>
<path d="M34.3799 38.0771C36.2061 38.0771 37.8174 39.6885 37.8174 41.5146V51.8271C37.8174 53.7607 36.2061 55.2646 34.3799 55.2646H24.0674C22.1338 55.2646 20.6299 53.7607 20.6299 51.8271V41.5146C20.6299 39.6885 22.1338 38.0771 24.0674 38.0771H34.3799ZM31.8018 29.4834V34.6396H26.6455V28.5166C26.6455 26.2607 28.4717 24.3271 30.7275 24.3271H52.4268V17.4521H48.1299C46.1963 17.4521 44.6924 15.9482 44.6924 14.0146V3.70215C44.6924 1.87598 46.1963 0.264648 48.1299 0.264648H61.8799C63.7061 0.264648 65.3174 1.87598 65.3174 3.70215V14.0146C65.3174 15.9482 63.7061 17.4521 61.8799 17.4521H57.583V24.3271H79.1748C81.4307 24.3271 83.3643 26.2607 83.3643 28.5166V34.6396H78.208V29.4834H57.583V34.6396H52.4268V29.4834H31.8018ZM60.1611 38.0771C61.9873 38.0771 63.5986 39.6885 63.5986 41.5146V51.8271C63.5986 53.7607 61.9873 55.2646 60.1611 55.2646H49.8486C47.915 55.2646 46.4111 53.7607 46.4111 51.8271V41.5146C46.4111 39.6885 47.915 38.0771 49.8486 38.0771H60.1611ZM85.9424 38.0771C87.7686 38.0771 89.3799 39.6885 89.3799 41.5146V51.8271C89.3799 53.7607 87.7686 55.2646 85.9424 55.2646H75.6299C73.6963 55.2646 72.1924 53.7607 72.1924 51.8271V41.5146C72.1924 39.6885 73.6963 38.0771 75.6299 38.0771H85.9424Z" fill="#F79830"/>
</svg>
