<svg width="70" height="49" viewBox="0 0 70 49" fill="none" xmlns="http://www.w3.org/2000/svg">
<path d="M10.9424 21.0273C7.0752 21.0273 4.06738 18.0195 4.06738 14.1523C4.06738 10.3926 7.0752 7.27734 10.9424 7.27734C14.7021 7.27734 17.8174 10.3926 17.8174 14.1523C17.8174 18.0195 14.7021 21.0273 10.9424 21.0273ZM59.0674 21.0273C55.2002 21.0273 52.1924 18.0195 52.1924 14.1523C52.1924 10.3926 55.2002 7.27734 59.0674 7.27734C62.8271 7.27734 65.9424 10.3926 65.9424 14.1523C65.9424 18.0195 62.8271 21.0273 59.0674 21.0273ZM62.5049 24.4648C66.2646 24.4648 69.3799 27.5801 69.3799 31.3398V34.7773C69.3799 36.7109 67.7686 38.2148 65.9424 38.2148H58.8525C58.1006 33.166 55.0928 28.8691 50.6885 26.5059C51.9775 25.3242 53.6963 24.4648 55.6299 24.4648H62.5049ZM35.0049 24.4648C28.3447 24.4648 22.9736 19.0938 22.9736 12.4336C22.9736 5.88086 28.3447 0.402344 35.0049 0.402344C41.5576 0.402344 47.0361 5.88086 47.0361 12.4336C47.0361 19.0938 41.5576 24.4648 35.0049 24.4648ZM43.1689 27.9023C50.0439 27.9023 55.6299 33.4883 55.6299 40.3633V43.3711C55.6299 46.2715 53.2666 48.5273 50.4736 48.5273H19.5361C16.6357 48.5273 14.3799 46.2715 14.3799 43.3711V40.3633C14.3799 33.4883 19.8584 27.9023 26.7334 27.9023H27.5928C29.8486 28.9766 32.3193 29.6211 35.0049 29.6211C37.583 29.6211 40.0537 28.9766 42.3096 27.9023H43.1689ZM19.2139 26.5059C14.8096 28.8691 11.8018 33.166 11.0498 38.2148H4.06738C2.13379 38.2148 0.629883 36.7109 0.629883 34.7773V31.3398C0.629883 27.5801 3.6377 24.4648 7.50488 24.4648H14.3799C16.2061 24.4648 17.9248 25.3242 19.2139 26.5059Z" fill="#F79830"/>
</svg>
