<svg width="14" height="14" viewBox="0 0 14 14" fill="none" xmlns="http://www.w3.org/2000/svg">
<path d="M13 11.75V5.75C12.8333 5.9375 12.6536 6.10938 12.4609 6.26562C11.0651 7.33854 9.95573 8.21875 9.13281 8.90625C8.86719 9.13021 8.65104 9.30469 8.48438 9.42969C8.31771 9.55469 8.09245 9.68099 7.80859 9.80859C7.52474 9.9362 7.25781 10 7.00781 10H7H6.99219C6.74219 10 6.47526 9.9362 6.19141 9.80859C5.90755 9.68099 5.68229 9.55469 5.51562 9.42969C5.34896 9.30469 5.13281 9.13021 4.86719 8.90625C4.04427 8.21875 2.9349 7.33854 1.53906 6.26562C1.34635 6.10938 1.16667 5.9375 1 5.75V11.75C1 11.8177 1.02474 11.8763 1.07422 11.9258C1.1237 11.9753 1.18229 12 1.25 12H12.75C12.8177 12 12.8763 11.9753 12.9258 11.9258C12.9753 11.8763 13 11.8177 13 11.75ZM13 3.53906C13 3.52865 13 3.5 13 3.45312C13 3.40625 13 3.37109 13 3.34766C13 3.32422 12.9987 3.29036 12.9961 3.24609C12.9935 3.20182 12.9857 3.16927 12.9727 3.14844C12.9596 3.1276 12.9453 3.10417 12.9297 3.07812C12.9141 3.05208 12.8906 3.03255 12.8594 3.01953C12.8281 3.00651 12.7917 3 12.75 3H1.25C1.18229 3 1.1237 3.02474 1.07422 3.07422C1.02474 3.1237 1 3.18229 1 3.25C1 4.125 1.38281 4.86458 2.14844 5.46875C3.15365 6.26042 4.19792 7.08594 5.28125 7.94531C5.3125 7.97135 5.40365 8.04818 5.55469 8.17578C5.70573 8.30339 5.82552 8.40104 5.91406 8.46875C6.0026 8.53646 6.11849 8.61849 6.26172 8.71484C6.40495 8.8112 6.53646 8.88281 6.65625 8.92969C6.77604 8.97656 6.88802 9 6.99219 9H7H7.00781C7.11198 9 7.22396 8.97656 7.34375 8.92969C7.46354 8.88281 7.59505 8.8112 7.73828 8.71484C7.88151 8.61849 7.9974 8.53646 8.08594 8.46875C8.17448 8.40104 8.29427 8.30339 8.44531 8.17578C8.59635 8.04818 8.6875 7.97135 8.71875 7.94531C9.80208 7.08594 10.8464 6.26042 11.8516 5.46875C12.1328 5.24479 12.3945 4.94401 12.6367 4.56641C12.8789 4.1888 13 3.84635 13 3.53906ZM14 3.25V11.75C14 12.0938 13.8776 12.388 13.6328 12.6328C13.388 12.8776 13.0938 13 12.75 13H1.25C0.90625 13 0.611979 12.8776 0.367188 12.6328C0.122396 12.388 0 12.0938 0 11.75V3.25C0 2.90625 0.122396 2.61198 0.367188 2.36719C0.611979 2.1224 0.90625 2 1.25 2H12.75C13.0938 2 13.388 2.1224 13.6328 2.36719C13.8776 2.61198 14 2.90625 14 3.25Z" fill="#F79830"/>
</svg>
