<svg width="13" height="14" viewBox="0 0 13 14" fill="none" xmlns="http://www.w3.org/2000/svg">
<path d="M13 6.92188C13 7.78646 12.8438 8.60417 12.5312 9.375L12.375 9.75781L10.9297 10.0156C10.8151 10.4479 10.5794 10.8034 10.2227 11.082C9.86589 11.3607 9.45833 11.5 9 11.5V11.75C9 11.8229 8.97656 11.8828 8.92969 11.9297C8.88281 11.9766 8.82292 12 8.75 12H8.25C8.17708 12 8.11719 11.9766 8.07031 11.9297C8.02344 11.8828 8 11.8229 8 11.75V7.25C8 7.17708 8.02344 7.11719 8.07031 7.07031C8.11719 7.02344 8.17708 7 8.25 7H8.75C8.82292 7 8.88281 7.02344 8.92969 7.07031C8.97656 7.11719 9 7.17708 9 7.25V7.5C9.36979 7.5 9.70833 7.59245 10.0156 7.77734C10.3229 7.96224 10.5651 8.21094 10.7422 8.52344L11.2734 8.42969C11.4245 7.9349 11.5 7.43229 11.5 6.92188C11.5 6.15104 11.2708 5.42448 10.8125 4.74219C10.3542 4.0599 9.73828 3.51562 8.96484 3.10938C8.19141 2.70312 7.36979 2.5 6.5 2.5C5.63021 2.5 4.80859 2.70312 4.03516 3.10938C3.26172 3.51562 2.64583 4.0599 2.1875 4.74219C1.72917 5.42448 1.5 6.15104 1.5 6.92188C1.5 7.43229 1.57552 7.9349 1.72656 8.42969L2.25781 8.52344C2.4349 8.21094 2.67708 7.96224 2.98438 7.77734C3.29167 7.59245 3.63021 7.5 4 7.5V7.25C4 7.17708 4.02344 7.11719 4.07031 7.07031C4.11719 7.02344 4.17708 7 4.25 7H4.75C4.82292 7 4.88281 7.02344 4.92969 7.07031C4.97656 7.11719 5 7.17708 5 7.25V11.75C5 11.8229 4.97656 11.8828 4.92969 11.9297C4.88281 11.9766 4.82292 12 4.75 12H4.25C4.17708 12 4.11719 11.9766 4.07031 11.9297C4.02344 11.8828 4 11.8229 4 11.75V11.5C3.54167 11.5 3.13411 11.3607 2.77734 11.082C2.42057 10.8034 2.1849 10.4479 2.07031 10.0156L0.625 9.75781L0.46875 9.375C0.15625 8.60417 0 7.78646 0 6.92188C0 6.13542 0.174479 5.3776 0.523438 4.64844C0.872396 3.91927 1.33854 3.28776 1.92188 2.75391C2.50521 2.22005 3.19792 1.79427 4 1.47656C4.80208 1.15885 5.63542 1 6.5 1C7.36458 1 8.19792 1.15885 9 1.47656C9.80208 1.79427 10.4948 2.22005 11.0781 2.75391C11.6615 3.28776 12.1276 3.91927 12.4766 4.64844C12.8255 5.3776 13 6.13542 13 6.92188Z" fill="#F79830"/>
</svg>
