<svg width="13" height="14" viewBox="0 0 13 14" fill="none" xmlns="http://www.w3.org/2000/svg">
<path d="M10.9999 7.75V11.5C10.9999 11.6354 10.9504 11.7526 10.8515 11.8516C10.7525 11.9505 10.6353 12 10.4999 12H7.49989V9H5.49989V12H2.49989C2.36447 12 2.24729 11.9505 2.14833 11.8516C2.04937 11.7526 1.99989 11.6354 1.99989 11.5V7.75C1.99989 7.74479 2.00119 7.73698 2.0038 7.72656C2.0064 7.71615 2.0077 7.70833 2.0077 7.70312L6.49989 4L10.9921 7.70312C10.9973 7.71354 10.9999 7.72917 10.9999 7.75ZM12.7421 7.21094L12.2577 7.78906C12.216 7.83594 12.1613 7.86458 12.0936 7.875H12.0702C12.0025 7.875 11.9478 7.85677 11.9061 7.82031L6.49989 3.3125L1.09364 7.82031C1.03114 7.86198 0.968642 7.88021 0.906142 7.875C0.838433 7.86458 0.783746 7.83594 0.742079 7.78906L0.257704 7.21094C0.216037 7.15885 0.197808 7.09766 0.203016 7.02734C0.208225 6.95703 0.236871 6.90104 0.288954 6.85938L5.90614 2.17969C6.07281 2.04427 6.27072 1.97656 6.49989 1.97656C6.72906 1.97656 6.92697 2.04427 7.09364 2.17969L8.99989 3.77344V2.25C8.99989 2.17708 9.02333 2.11719 9.0702 2.07031C9.11708 2.02344 9.17697 2 9.24989 2H10.7499C10.8228 2 10.8827 2.02344 10.9296 2.07031C10.9765 2.11719 10.9999 2.17708 10.9999 2.25V5.4375L12.7108 6.85938C12.7629 6.90104 12.7916 6.95703 12.7968 7.02734C12.802 7.09766 12.7837 7.15885 12.7421 7.21094Z" fill="#F79830"/>
</svg>
