<svg width="14" height="14" viewBox="0 0 14 14" fill="none" xmlns="http://www.w3.org/2000/svg">
<path d="M2.25 3C2.59375 3 2.88802 3.1224 3.13281 3.36719C3.3776 3.61198 3.5 3.90625 3.5 4.25V12.75C3.5 13.0938 3.3776 13.388 3.13281 13.6328C2.88802 13.8776 2.59375 14 2.25 14H1.25C0.90625 14 0.611979 13.8776 0.367188 13.6328C0.122396 13.388 0 13.0938 0 12.75V4.25C0 3.90625 0.122396 3.61198 0.367188 3.36719C0.611979 3.1224 0.90625 3 1.25 3H2.25ZM13 4.27344C13.3021 4.45052 13.5443 4.69271 13.7266 5C13.9089 5.30729 14 5.64062 14 6V12C14 12.5521 13.8047 13.0234 13.4141 13.4141C13.0234 13.8047 12.5521 14 12 14H5.25C4.90625 14 4.61198 13.8776 4.36719 13.6328C4.1224 13.388 4 13.0938 4 12.75V0.75C4 0.541667 4.07292 0.364583 4.21875 0.21875C4.36458 0.072917 4.54167 0 4.75 0H10C10.2083 0 10.4375 0.052083 10.6875 0.15625C10.9375 0.260417 11.1354 0.385417 11.2812 0.53125L12.4688 1.71875C12.6146 1.86458 12.7396 2.0625 12.8438 2.3125C12.9479 2.5625 13 2.79167 13 3V4.27344ZM7.25 12V11C7.25 10.9271 7.22656 10.8672 7.17969 10.8203C7.13281 10.7734 7.07292 10.75 7 10.75H6C5.92708 10.75 5.86719 10.7734 5.82031 10.8203C5.77344 10.8672 5.75 10.9271 5.75 11V12C5.75 12.0729 5.77344 12.1328 5.82031 12.1797C5.86719 12.2266 5.92708 12.25 6 12.25H7C7.07292 12.25 7.13281 12.2266 7.17969 12.1797C7.22656 12.1328 7.25 12.0729 7.25 12ZM7.25 10V9C7.25 8.92708 7.22656 8.86719 7.17969 8.82031C7.13281 8.77344 7.07292 8.75 7 8.75H6C5.92708 8.75 5.86719 8.77344 5.82031 8.82031C5.77344 8.86719 5.75 8.92708 5.75 9V10C5.75 10.0729 5.77344 10.1328 5.82031 10.1797C5.86719 10.2266 5.92708 10.25 6 10.25H7C7.07292 10.25 7.13281 10.2266 7.17969 10.1797C7.22656 10.1328 7.25 10.0729 7.25 10ZM7.25 8V7C7.25 6.92708 7.22656 6.86719 7.17969 6.82031C7.13281 6.77344 7.07292 6.75 7 6.75H6C5.92708 6.75 5.86719 6.77344 5.82031 6.82031C5.77344 6.86719 5.75 6.92708 5.75 7V8C5.75 8.07292 5.77344 8.13281 5.82031 8.17969C5.86719 8.22656 5.92708 8.25 6 8.25H7C7.07292 8.25 7.13281 8.22656 7.17969 8.17969C7.22656 8.13281 7.25 8.07292 7.25 8ZM9.25 12V11C9.25 10.9271 9.22656 10.8672 9.17969 10.8203C9.13281 10.7734 9.07292 10.75 9 10.75H8C7.92708 10.75 7.86719 10.7734 7.82031 10.8203C7.77344 10.8672 7.75 10.9271 7.75 11V12C7.75 12.0729 7.77344 12.1328 7.82031 12.1797C7.86719 12.2266 7.92708 12.25 8 12.25H9C9.07292 12.25 9.13281 12.2266 9.17969 12.1797C9.22656 12.1328 9.25 12.0729 9.25 12ZM9.25 10V9C9.25 8.92708 9.22656 8.86719 9.17969 8.82031C9.13281 8.77344 9.07292 8.75 9 8.75H8C7.92708 8.75 7.86719 8.77344 7.82031 8.82031C7.77344 8.86719 7.75 8.92708 7.75 9V10C7.75 10.0729 7.77344 10.1328 7.82031 10.1797C7.86719 10.2266 7.92708 10.25 8 10.25H9C9.07292 10.25 9.13281 10.2266 9.17969 10.1797C9.22656 10.1328 9.25 10.0729 9.25 10ZM9.25 8V7C9.25 6.92708 9.22656 6.86719 9.17969 6.82031C9.13281 6.77344 9.07292 6.75 9 6.75H8C7.92708 6.75 7.86719 6.77344 7.82031 6.82031C7.77344 6.86719 7.75 6.92708 7.75 7V8C7.75 8.07292 7.77344 8.13281 7.82031 8.17969C7.86719 8.22656 7.92708 8.25 8 8.25H9C9.07292 8.25 9.13281 8.22656 9.17969 8.17969C9.22656 8.13281 9.25 8.07292 9.25 8ZM11.25 12V11C11.25 10.9271 11.2266 10.8672 11.1797 10.8203C11.1328 10.7734 11.0729 10.75 11 10.75H10C9.92708 10.75 9.86719 10.7734 9.82031 10.8203C9.77344 10.8672 9.75 10.9271 9.75 11V12C9.75 12.0729 9.77344 12.1328 9.82031 12.1797C9.86719 12.2266 9.92708 12.25 10 12.25H11C11.0729 12.25 11.1328 12.2266 11.1797 12.1797C11.2266 12.1328 11.25 12.0729 11.25 12ZM11.25 10V9C11.25 8.92708 11.2266 8.86719 11.1797 8.82031C11.1328 8.77344 11.0729 8.75 11 8.75H10C9.92708 8.75 9.86719 8.77344 9.82031 8.82031C9.77344 8.86719 9.75 8.92708 9.75 9V10C9.75 10.0729 9.77344 10.1328 9.82031 10.1797C9.86719 10.2266 9.92708 10.25 10 10.25H11C11.0729 10.25 11.1328 10.2266 11.1797 10.1797C11.2266 10.1328 11.25 10.0729 11.25 10ZM11.25 8V7C11.25 6.92708 11.2266 6.86719 11.1797 6.82031C11.1328 6.77344 11.0729 6.75 11 6.75H10C9.92708 6.75 9.86719 6.77344 9.82031 6.82031C9.77344 6.86719 9.75 6.92708 9.75 7V8C9.75 8.07292 9.77344 8.13281 9.82031 8.17969C9.86719 8.22656 9.92708 8.25 10 8.25H11C11.0729 8.25 11.1328 8.22656 11.1797 8.17969C11.2266 8.13281 11.25 8.07292 11.25 8ZM12 5V3H10.75C10.5417 3 10.3646 2.92708 10.2188 2.78125C10.0729 2.63542 10 2.45833 10 2.25V1H5V5H12Z" fill="#F79830"/>
</svg>
