<svg width="9" height="14" viewBox="0 0 9 14" fill="none" xmlns="http://www.w3.org/2000/svg">
<g opacity="0.9">
<path d="M6.0332 6.45578C6.0332 6.45578 6.12388 6.3651 6.30525 6.18373C6.48661 6.00237 6.57729 5.65537 6.57729 5.14272C6.57729 4.63007 6.39593 4.19238 6.0332 3.82966C5.67048 3.46694 5.23279 3.28558 4.72014 3.28558C4.2075 3.28558 3.76981 3.46694 3.40709 3.82966C3.04436 4.19238 2.863 4.63007 2.863 5.14272C2.863 5.65537 3.04436 6.09305 3.40709 6.45578C3.76981 6.8185 4.2075 6.99986 4.72014 6.99986C5.23279 6.99986 5.67048 6.8185 6.0332 6.45578ZM8.43443 5.14272C8.43443 5.66988 8.35463 6.10273 8.19503 6.44127L5.55441 12.0562C5.47703 12.2158 5.36217 12.3416 5.20982 12.4335C5.05748 12.5253 4.89425 12.5713 4.72014 12.5713C4.54604 12.5713 4.38281 12.5253 4.23047 12.4335C4.07812 12.3416 3.96568 12.2158 3.89314 12.0562L1.24526 6.44127C1.08566 6.10273 1.00586 5.66988 1.00586 5.14272C1.00586 4.11742 1.36858 3.24205 2.09403 2.5166C2.81948 1.79116 3.69485 1.42843 4.72014 1.42843C5.74544 1.42843 6.62081 1.79116 7.34626 2.5166C8.07171 3.24205 8.43443 4.11742 8.43443 5.14272Z" fill="#A9A9A9"/>
</g>
</svg>
