<svg width="14" height="14" viewBox="0 0 14 14" fill="none" xmlns="http://www.w3.org/2000/svg">
<g opacity="0.9">
<path d="M13.4199 5.65053V11.4106C13.4199 11.7298 13.3063 12.003 13.079 12.2303C12.8517 12.4576 12.5784 12.5713 12.2592 12.5713H1.58064C1.26144 12.5713 0.988188 12.4576 0.760882 12.2303C0.533575 12.003 0.419922 11.7298 0.419922 11.4106V5.65053C0.632719 5.88751 0.876953 6.09789 1.15262 6.28167C2.90337 7.4714 4.10519 8.30566 4.75809 8.78446C5.03376 8.98758 5.25744 9.14597 5.42913 9.25963C5.60082 9.37328 5.82933 9.48935 6.11468 9.60784C6.40002 9.72633 6.66602 9.78557 6.91267 9.78557H6.91992H6.92718C7.17383 9.78557 7.43982 9.72633 7.72517 9.60784C8.01051 9.48935 8.23903 9.37328 8.41071 9.25963C8.5824 9.14597 8.80608 8.98758 9.08175 8.78446C9.90392 8.18959 11.1082 7.35533 12.6945 6.28167C12.9701 6.09305 13.212 5.88267 13.4199 5.65053ZM13.4199 3.51772C13.4199 3.89979 13.3014 4.26493 13.0645 4.61314C12.8275 4.96136 12.5325 5.25879 12.1794 5.50544C10.361 6.76772 9.22926 7.55362 8.78432 7.86314C8.73596 7.897 8.63318 7.97075 8.476 8.0844C8.31882 8.19806 8.18824 8.28995 8.08426 8.36007C7.98028 8.4302 7.85454 8.50879 7.70703 8.59584C7.55952 8.6829 7.42048 8.74819 7.2899 8.79171C7.15932 8.83524 7.03841 8.857 6.92718 8.857H6.91992H6.91267C6.80143 8.857 6.68052 8.83524 6.54994 8.79171C6.41936 8.74819 6.28032 8.6829 6.13281 8.59584C5.9853 8.50879 5.85956 8.4302 5.75558 8.36007C5.6516 8.28995 5.52102 8.19806 5.36384 8.0844C5.20666 7.97075 5.10389 7.897 5.05552 7.86314C4.61542 7.55362 3.98186 7.1123 3.15485 6.5392C2.32785 5.9661 1.83212 5.62151 1.66769 5.50544C1.36784 5.30232 1.08491 5.02302 0.818917 4.66755C0.55292 4.31208 0.419922 3.982 0.419922 3.67732C0.419922 3.30008 0.520275 2.98572 0.720982 2.73424C0.921689 2.48275 1.20824 2.357 1.58064 2.357H12.2592C12.5736 2.357 12.8456 2.47066 13.0753 2.69796C13.3051 2.92527 13.4199 3.19852 13.4199 3.51772Z" fill="#A9A9A9"/>
</g>
</svg>
