<svg width="22" height="25" viewBox="0 0 22 25" fill="none" xmlns="http://www.w3.org/2000/svg">
<path d="M21.994 18.7492V20.5349C21.994 20.7767 21.9056 20.986 21.7289 21.1627C21.5522 21.3394 21.343 21.4277 21.1011 21.4277H1.45829C1.21647 21.4277 1.00721 21.3394 0.830497 21.1627C0.653785 20.986 0.56543 20.7767 0.56543 20.5349V18.7492C0.56543 18.5073 0.653785 18.2981 0.830497 18.1214C1.00721 17.9447 1.21647 17.8563 1.45829 17.8563H21.1011C21.343 17.8563 21.5522 17.9447 21.7289 18.1214C21.9056 18.2981 21.994 18.5073 21.994 18.7492ZM21.994 11.6063V13.392C21.994 13.6338 21.9056 13.8431 21.7289 14.0198C21.5522 14.1965 21.343 14.2849 21.1011 14.2849H1.45829C1.21647 14.2849 1.00721 14.1965 0.830497 14.0198C0.653785 13.8431 0.56543 13.6338 0.56543 13.392V11.6063C0.56543 11.3645 0.653785 11.1552 0.830497 10.9785C1.00721 10.8018 1.21647 10.7134 1.45829 10.7134H21.1011C21.343 10.7134 21.5522 10.8018 21.7289 10.9785C21.9056 11.1552 21.994 11.3645 21.994 11.6063ZM21.994 4.46345V6.24916C21.994 6.49098 21.9056 6.70024 21.7289 6.87695C21.5522 7.05366 21.343 7.14202 21.1011 7.14202H1.45829C1.21647 7.14202 1.00721 7.05366 0.830497 6.87695C0.653785 6.70024 0.56543 6.49098 0.56543 6.24916V4.46345C0.56543 4.22163 0.653785 4.01237 0.830497 3.83566C1.00721 3.65895 1.21647 3.57059 1.45829 3.57059H21.1011C21.343 3.57059 21.5522 3.65895 21.7289 3.83566C21.9056 4.01237 21.994 4.22163 21.994 4.46345Z" fill="#4C4C4C"/>
</svg>
