<svg width="14" height="15" viewBox="0 0 14 15" fill="none" xmlns="http://www.w3.org/2000/svg">
<path d="M1.5 13.4199H3.75V11.1699H1.5V13.4199ZM4.25 13.4199H6.75V11.1699H4.25V13.4199ZM1.5 10.6699H3.75V8.16992H1.5V10.6699ZM4.25 10.6699H6.75V8.16992H4.25V10.6699ZM1.5 7.66992H3.75V5.41992H1.5V7.66992ZM7.25 13.4199H9.75V11.1699H7.25V13.4199ZM4.25 7.66992H6.75V5.41992H4.25V7.66992ZM10.25 13.4199H12.5V11.1699H10.25V13.4199ZM7.25 10.6699H9.75V8.16992H7.25V10.6699ZM4.5 3.91992V1.66992C4.5 1.60221 4.47526 1.54362 4.42578 1.49414C4.3763 1.44466 4.31771 1.41992 4.25 1.41992H3.75C3.68229 1.41992 3.6237 1.44466 3.57422 1.49414C3.52474 1.54362 3.5 1.60221 3.5 1.66992V3.91992C3.5 3.98763 3.52474 4.04622 3.57422 4.0957C3.6237 4.14518 3.68229 4.16992 3.75 4.16992H4.25C4.31771 4.16992 4.3763 4.14518 4.42578 4.0957C4.47526 4.04622 4.5 3.98763 4.5 3.91992ZM10.25 10.6699H12.5V8.16992H10.25V10.6699ZM7.25 7.66992H9.75V5.41992H7.25V7.66992ZM10.25 7.66992H12.5V5.41992H10.25V7.66992ZM10.5 3.91992V1.66992C10.5 1.60221 10.4753 1.54362 10.4258 1.49414C10.3763 1.44466 10.3177 1.41992 10.25 1.41992H9.75C9.68229 1.41992 9.6237 1.44466 9.57422 1.49414C9.52474 1.54362 9.5 1.60221 9.5 1.66992V3.91992C9.5 3.98763 9.52474 4.04622 9.57422 4.0957C9.6237 4.14518 9.68229 4.16992 9.75 4.16992H10.25C10.3177 4.16992 10.3763 4.14518 10.4258 4.0957C10.4753 4.04622 10.5 3.98763 10.5 3.91992ZM13.5 3.41992V13.4199C13.5 13.6908 13.401 13.9251 13.2031 14.123C13.0052 14.321 12.7708 14.4199 12.5 14.4199H1.5C1.22917 14.4199 0.994792 14.321 0.796875 14.123C0.598958 13.9251 0.5 13.6908 0.5 13.4199V3.41992C0.5 3.14909 0.598958 2.91471 0.796875 2.7168C0.994792 2.51888 1.22917 2.41992 1.5 2.41992H2.5V1.66992C2.5 1.32617 2.6224 1.0319 2.86719 0.787109C3.11198 0.542317 3.40625 0.419922 3.75 0.419922H4.25C4.59375 0.419922 4.88802 0.542317 5.13281 0.787109C5.3776 1.0319 5.5 1.32617 5.5 1.66992V2.41992H8.5V1.66992C8.5 1.32617 8.6224 1.0319 8.86719 0.787109C9.11198 0.542317 9.40625 0.419922 9.75 0.419922H10.25C10.5938 0.419922 10.888 0.542317 11.1328 0.787109C11.3776 1.0319 11.5 1.32617 11.5 1.66992V2.41992H12.5C12.7708 2.41992 13.0052 2.51888 13.2031 2.7168C13.401 2.91471 13.5 3.14909 13.5 3.41992Z" fill="#F39F07"/>
</svg>
