<svg width="12" height="14" viewBox="0 0 12 14" fill="none" xmlns="http://www.w3.org/2000/svg">
<path d="M3.482 11.3126L4.14216 10.6525L2.43736 8.94768L1.7772 9.60784V10.3841H2.70578V11.3126H3.482ZM7.27609 4.5805C7.27609 4.4741 7.22289 4.4209 7.11649 4.4209C7.06813 4.4209 7.02702 4.43783 6.99316 4.47168L3.06124 8.4036C3.02739 8.43745 3.01046 8.47856 3.01046 8.52693C3.01046 8.63332 3.06366 8.68652 3.17006 8.68652C3.21842 8.68652 3.25953 8.6696 3.29339 8.63574L7.22531 4.70382C7.25916 4.66997 7.27609 4.62886 7.27609 4.5805ZM6.88435 3.18764L9.9022 6.2055L3.86649 12.2412H0.848633V9.22335L6.88435 3.18764ZM11.8391 3.88407C11.8391 4.14039 11.7497 4.35803 11.5707 4.53697L10.3665 5.74121L7.34863 2.72335L8.55287 1.52637C8.72698 1.34259 8.94461 1.2507 9.20578 1.2507C9.4621 1.2507 9.68215 1.34259 9.86593 1.52637L11.5707 3.22391C11.7497 3.41253 11.8391 3.63258 11.8391 3.88407Z" fill="#F39F07"/>
</svg>
