<svg width="11" height="14" viewBox="0 0 11 14" fill="none" xmlns="http://www.w3.org/2000/svg">
<g opacity="0.9">
<path d="M10.4672 9.49526C10.4672 9.62584 10.443 9.79632 10.3947 10.0067C10.3463 10.2171 10.2955 10.3827 10.2423 10.5036C10.1408 10.7454 9.84575 11.0018 9.35728 11.2726C8.90267 11.5193 8.45289 11.6426 8.00795 11.6426C7.87737 11.6426 7.74921 11.6341 7.62347 11.6172C7.49772 11.6003 7.35868 11.57 7.20633 11.5265C7.05399 11.483 6.94034 11.4479 6.86537 11.4213C6.79041 11.3947 6.6562 11.3451 6.46275 11.2726C6.2693 11.2001 6.15081 11.1565 6.10728 11.142C5.63332 10.9727 5.21015 10.772 4.83775 10.5399C4.22354 10.1578 3.58515 9.63551 2.92257 8.97294C2.26 8.31036 1.73768 7.67197 1.35561 7.05776C1.12347 6.68536 0.922759 6.26218 0.753488 5.78823C0.738979 5.7447 0.695452 5.62621 0.622907 5.43276C0.550363 5.2393 0.500791 5.1051 0.474191 5.03013C0.447591 4.95517 0.412528 4.84152 0.369001 4.68917C0.325474 4.53683 0.295247 4.39779 0.27832 4.27204C0.261393 4.1463 0.25293 4.01814 0.25293 3.88756C0.25293 3.44262 0.376256 2.99284 0.622907 2.53823C0.893741 2.04976 1.15007 1.75474 1.39188 1.65318C1.51279 1.59998 1.67843 1.5492 1.88881 1.50084C2.09919 1.45247 2.26967 1.42829 2.40025 1.42829C2.46796 1.42829 2.51874 1.43555 2.55259 1.45006C2.63965 1.47907 2.76781 1.66285 2.93708 2.00139C2.99028 2.09328 3.06283 2.22386 3.15472 2.39314C3.24661 2.56241 3.33124 2.71596 3.40862 2.85379C3.486 2.99163 3.56097 3.121 3.63351 3.24191C3.64802 3.26125 3.69034 3.32171 3.76046 3.42327C3.83059 3.52483 3.88258 3.61068 3.91643 3.6808C3.95029 3.75093 3.96722 3.81985 3.96722 3.88756C3.96722 3.98428 3.8983 4.10519 3.76046 4.25028C3.62263 4.39537 3.4727 4.52837 3.31069 4.64927C3.14867 4.77018 2.99874 4.89834 2.86091 5.03376C2.72307 5.16918 2.65416 5.28041 2.65416 5.36747C2.65416 5.41099 2.66625 5.4654 2.69043 5.53069C2.71461 5.59598 2.73517 5.64555 2.75209 5.67941C2.76902 5.71326 2.80287 5.7713 2.85366 5.85352C2.90444 5.93573 2.93225 5.98168 2.93708 5.99135C3.30464 6.65392 3.7254 7.22219 4.19936 7.69615C4.67332 8.17011 5.24158 8.59087 5.90416 8.95843C5.91383 8.96326 5.95978 8.99107 6.04199 9.04185C6.12421 9.09263 6.18225 9.12649 6.2161 9.14342C6.24995 9.16034 6.29953 9.1809 6.36482 9.20508C6.43011 9.22926 6.48451 9.24135 6.52804 9.24135C6.6151 9.24135 6.72633 9.17243 6.86175 9.0346C6.99716 8.89676 7.12533 8.74684 7.24623 8.58482C7.36714 8.4228 7.50014 8.27288 7.64523 8.13504C7.79032 7.99721 7.91123 7.92829 8.00795 7.92829C8.07566 7.92829 8.14458 7.94522 8.2147 7.97907C8.28483 8.01293 8.37068 8.06492 8.47224 8.13504C8.5738 8.20517 8.63425 8.24749 8.6536 8.262C8.77451 8.33454 8.90388 8.40951 9.04171 8.48689C9.17955 8.56427 9.3331 8.6489 9.50237 8.74079C9.67164 8.83268 9.80222 8.90523 9.89411 8.95843C10.2327 9.1277 10.4164 9.25586 10.4455 9.34291C10.46 9.37677 10.4672 9.42755 10.4672 9.49526Z" fill="#A9A9A9"/>
</g>
</svg>
