<svg width="72" height="66" viewBox="0 0 72 66" fill="none" xmlns="http://www.w3.org/2000/svg">
<path d="M50.7313 10.2764C51.2001 10.6112 51.4344 11.0548 51.4344 11.6073V46.9644C51.4344 47.2992 51.3424 47.6006 51.1582 47.8684C50.974 48.1363 50.7313 48.3288 50.43 48.446L34.3585 54.8746C33.9568 55.0587 33.555 55.0587 33.1532 54.8746L17.6844 48.6971L2.21568 54.8746C2.04827 54.9583 1.84738 55.0001 1.613 55.0001C1.29492 55.0001 0.993583 54.9081 0.708984 54.7239C0.240234 54.3891 0.00585938 53.9455 0.00585938 53.393V18.0359C0.00585938 17.701 0.0979353 17.3997 0.282087 17.1318C0.466239 16.864 0.708984 16.6715 1.01032 16.5543L17.0818 10.1257C17.4835 9.94155 17.8853 9.94155 18.2871 10.1257L33.7559 16.3032L49.2246 10.1257C49.7603 9.90807 50.2626 9.95829 50.7313 10.2764ZM18.488 13.6664V45.5582L32.9523 51.3338V19.4421L18.488 13.6664ZM3.22014 19.1157V51.0074L16.8809 45.5582V13.6664L3.22014 19.1157ZM48.2201 45.8846V13.9929L34.5594 19.4421V51.3338L48.2201 45.8846Z" fill="#FAFAFA"/>
</svg>
