<svg width="72" height="66" viewBox="0 0 72 66" fill="none" xmlns="http://www.w3.org/2000/svg">
<path d="M9.64481 42.9464V44.5536C9.64481 44.7712 9.56529 44.9595 9.40625 45.1186C9.24721 45.2776 9.05887 45.3571 8.84124 45.3571H7.2341C7.01646 45.3571 6.82813 45.2776 6.66909 45.1186C6.51004 44.9595 6.43052 44.7712 6.43052 44.5536V42.9464C6.43052 42.7288 6.51004 42.5405 6.66909 42.3814C6.82813 42.2224 7.01646 42.1429 7.2341 42.1429H8.84124C9.05887 42.1429 9.24721 42.2224 9.40625 42.3814C9.56529 42.5405 9.64481 42.7288 9.64481 42.9464ZM9.64481 36.5179V38.125C9.64481 38.3426 9.56529 38.531 9.40625 38.69C9.24721 38.8491 9.05887 38.9286 8.84124 38.9286H7.2341C7.01646 38.9286 6.82813 38.8491 6.66909 38.69C6.51004 38.531 6.43052 38.3426 6.43052 38.125V36.5179C6.43052 36.3002 6.51004 36.1119 6.66909 35.9528C6.82813 35.7938 7.01646 35.7143 7.2341 35.7143H8.84124C9.05887 35.7143 9.24721 35.7938 9.40625 35.9528C9.56529 36.1119 9.64481 36.3002 9.64481 36.5179ZM16.0734 36.5179V38.125C16.0734 38.3426 15.9939 38.531 15.8348 38.69C15.6758 38.8491 15.4874 38.9286 15.2698 38.9286H13.6627C13.445 38.9286 13.2567 38.8491 13.0977 38.69C12.9386 38.531 12.8591 38.3426 12.8591 38.125V36.5179C12.8591 36.3002 12.9386 36.1119 13.0977 35.9528C13.2567 35.7938 13.445 35.7143 13.6627 35.7143H15.2698C15.4874 35.7143 15.6758 35.7938 15.8348 35.9528C15.9939 36.1119 16.0734 36.3002 16.0734 36.5179ZM9.64481 30.0893V31.6964C9.64481 31.9141 9.56529 32.1024 9.40625 32.2614C9.24721 32.4205 9.05887 32.5 8.84124 32.5H7.2341C7.01646 32.5 6.82813 32.4205 6.66909 32.2614C6.51004 32.1024 6.43052 31.9141 6.43052 31.6964V30.0893C6.43052 29.8717 6.51004 29.6833 6.66909 29.5243C6.82813 29.3652 7.01646 29.2857 7.2341 29.2857H8.84124C9.05887 29.2857 9.24721 29.3652 9.40625 29.5243C9.56529 29.6833 9.64481 29.8717 9.64481 30.0893ZM28.9305 42.9464V44.5536C28.9305 44.7712 28.851 44.9595 28.692 45.1186C28.5329 45.2776 28.3446 45.3571 28.127 45.3571H26.5198C26.3022 45.3571 26.1138 45.2776 25.9548 45.1186C25.7958 44.9595 25.7162 44.7712 25.7162 44.5536V42.9464C25.7162 42.7288 25.7958 42.5405 25.9548 42.3814C26.1138 42.2224 26.3022 42.1429 26.5198 42.1429H28.127C28.3446 42.1429 28.5329 42.2224 28.692 42.3814C28.851 42.5405 28.9305 42.7288 28.9305 42.9464ZM22.502 36.5179V38.125C22.502 38.3426 22.4224 38.531 22.2634 38.69C22.1044 38.8491 21.916 38.9286 21.6984 38.9286H20.0912C19.8736 38.9286 19.6853 38.8491 19.5262 38.69C19.3672 38.531 19.2877 38.3426 19.2877 38.125V36.5179C19.2877 36.3002 19.3672 36.1119 19.5262 35.9528C19.6853 35.7938 19.8736 35.7143 20.0912 35.7143H21.6984C21.916 35.7143 22.1044 35.7938 22.2634 35.9528C22.4224 36.1119 22.502 36.3002 22.502 36.5179ZM16.0734 30.0893V31.6964C16.0734 31.9141 15.9939 32.1024 15.8348 32.2614C15.6758 32.4205 15.4874 32.5 15.2698 32.5H13.6627C13.445 32.5 13.2567 32.4205 13.0977 32.2614C12.9386 32.1024 12.8591 31.9141 12.8591 31.6964V30.0893C12.8591 29.8717 12.9386 29.6833 13.0977 29.5243C13.2567 29.3652 13.445 29.2857 13.6627 29.2857H15.2698C15.4874 29.2857 15.6758 29.3652 15.8348 29.5243C15.9939 29.6833 16.0734 29.8717 16.0734 30.0893ZM9.64481 23.6607V25.2679C9.64481 25.4855 9.56529 25.6738 9.40625 25.8329C9.24721 25.9919 9.05887 26.0714 8.84124 26.0714H7.2341C7.01646 26.0714 6.82813 25.9919 6.66909 25.8329C6.51004 25.6738 6.43052 25.4855 6.43052 25.2679V23.6607C6.43052 23.4431 6.51004 23.2547 6.66909 23.0957C6.82813 22.9367 7.01646 22.8571 7.2341 22.8571H8.84124C9.05887 22.8571 9.24721 22.9367 9.40625 23.0957C9.56529 23.2547 9.64481 23.4431 9.64481 23.6607ZM28.9305 36.5179V38.125C28.9305 38.3426 28.851 38.531 28.692 38.69C28.5329 38.8491 28.3446 38.9286 28.127 38.9286H26.5198C26.3022 38.9286 26.1138 38.8491 25.9548 38.69C25.7958 38.531 25.7162 38.3426 25.7162 38.125V36.5179C25.7162 36.3002 25.7958 36.1119 25.9548 35.9528C26.1138 35.7938 26.3022 35.7143 26.5198 35.7143H28.127C28.3446 35.7143 28.5329 35.7938 28.692 35.9528C28.851 36.1119 28.9305 36.3002 28.9305 36.5179ZM22.502 30.0893V31.6964C22.502 31.9141 22.4224 32.1024 22.2634 32.2614C22.1044 32.4205 21.916 32.5 21.6984 32.5H20.0912C19.8736 32.5 19.6853 32.4205 19.5262 32.2614C19.3672 32.1024 19.2877 31.9141 19.2877 31.6964V30.0893C19.2877 29.8717 19.3672 29.6833 19.5262 29.5243C19.6853 29.3652 19.8736 29.2857 20.0912 29.2857H21.6984C21.916 29.2857 22.1044 29.3652 22.2634 29.5243C22.4224 29.6833 22.502 29.8717 22.502 30.0893ZM16.0734 23.6607V25.2679C16.0734 25.4855 15.9939 25.6738 15.8348 25.8329C15.6758 25.9919 15.4874 26.0714 15.2698 26.0714H13.6627C13.445 26.0714 13.2567 25.9919 13.0977 25.8329C12.9386 25.6738 12.8591 25.4855 12.8591 25.2679V23.6607C12.8591 23.4431 12.9386 23.2547 13.0977 23.0957C13.2567 22.9367 13.445 22.8571 13.6627 22.8571H15.2698C15.4874 22.8571 15.6758 22.9367 15.8348 23.0957C15.9939 23.2547 16.0734 23.4431 16.0734 23.6607ZM9.64481 17.2321V18.8393C9.64481 19.0569 9.56529 19.2453 9.40625 19.4043C9.24721 19.5633 9.05887 19.6429 8.84124 19.6429H7.2341C7.01646 19.6429 6.82813 19.5633 6.66909 19.4043C6.51004 19.2453 6.43052 19.0569 6.43052 18.8393V17.2321C6.43052 17.0145 6.51004 16.8262 6.66909 16.6671C6.82813 16.5081 7.01646 16.4286 7.2341 16.4286H8.84124C9.05887 16.4286 9.24721 16.5081 9.40625 16.6671C9.56529 16.8262 9.64481 17.0145 9.64481 17.2321ZM28.9305 30.0893V31.6964C28.9305 31.9141 28.851 32.1024 28.692 32.2614C28.5329 32.4205 28.3446 32.5 28.127 32.5H26.5198C26.3022 32.5 26.1138 32.4205 25.9548 32.2614C25.7958 32.1024 25.7162 31.9141 25.7162 31.6964V30.0893C25.7162 29.8717 25.7958 29.6833 25.9548 29.5243C26.1138 29.3652 26.3022 29.2857 26.5198 29.2857H28.127C28.3446 29.2857 28.5329 29.3652 28.692 29.5243C28.851 29.6833 28.9305 29.8717 28.9305 30.0893ZM22.502 23.6607V25.2679C22.502 25.4855 22.4224 25.6738 22.2634 25.8329C22.1044 25.9919 21.916 26.0714 21.6984 26.0714H20.0912C19.8736 26.0714 19.6853 25.9919 19.5262 25.8329C19.3672 25.6738 19.2877 25.4855 19.2877 25.2679V23.6607C19.2877 23.4431 19.3672 23.2547 19.5262 23.0957C19.6853 22.9367 19.8736 22.8571 20.0912 22.8571H21.6984C21.916 22.8571 22.1044 22.9367 22.2634 23.0957C22.4224 23.2547 22.502 23.4431 22.502 23.6607ZM16.0734 17.2321V18.8393C16.0734 19.0569 15.9939 19.2453 15.8348 19.4043C15.6758 19.5633 15.4874 19.6429 15.2698 19.6429H13.6627C13.445 19.6429 13.2567 19.5633 13.0977 19.4043C12.9386 19.2453 12.8591 19.0569 12.8591 18.8393V17.2321C12.8591 17.0145 12.9386 16.8262 13.0977 16.6671C13.2567 16.5081 13.445 16.4286 13.6627 16.4286H15.2698C15.4874 16.4286 15.6758 16.5081 15.8348 16.6671C15.9939 16.8262 16.0734 17.0145 16.0734 17.2321ZM28.9305 23.6607V25.2679C28.9305 25.4855 28.851 25.6738 28.692 25.8329C28.5329 25.9919 28.3446 26.0714 28.127 26.0714H26.5198C26.3022 26.0714 26.1138 25.9919 25.9548 25.8329C25.7958 25.6738 25.7162 25.4855 25.7162 25.2679V23.6607C25.7162 23.4431 25.7958 23.2547 25.9548 23.0957C26.1138 22.9367 26.3022 22.8571 26.5198 22.8571H28.127C28.3446 22.8571 28.5329 22.9367 28.692 23.0957C28.851 23.2547 28.9305 23.4431 28.9305 23.6607ZM22.502 17.2321V18.8393C22.502 19.0569 22.4224 19.2453 22.2634 19.4043C22.1044 19.5633 21.916 19.6429 21.6984 19.6429H20.0912C19.8736 19.6429 19.6853 19.5633 19.5262 19.4043C19.3672 19.2453 19.2877 19.0569 19.2877 18.8393V17.2321C19.2877 17.0145 19.3672 16.8262 19.5262 16.6671C19.6853 16.5081 19.8736 16.4286 20.0912 16.4286H21.6984C21.916 16.4286 22.1044 16.5081 22.2634 16.6671C22.4224 16.8262 22.502 17.0145 22.502 17.2321ZM28.9305 17.2321V18.8393C28.9305 19.0569 28.851 19.2453 28.692 19.4043C28.5329 19.5633 28.3446 19.6429 28.127 19.6429H26.5198C26.3022 19.6429 26.1138 19.5633 25.9548 19.4043C25.7958 19.2453 25.7162 19.0569 25.7162 18.8393V17.2321C25.7162 17.0145 25.7958 16.8262 25.9548 16.6671C26.1138 16.5081 26.3022 16.4286 26.5198 16.4286H28.127C28.3446 16.4286 28.5329 16.5081 28.692 16.6671C28.851 16.8262 28.9305 17.0145 28.9305 17.2321ZM22.502 51.7857H32.1448V13.2143H3.21624V51.7857H12.8591V46.1607C12.8591 45.9431 12.9386 45.7547 13.0977 45.5957C13.2567 45.4367 13.445 45.3571 13.6627 45.3571H21.6984C21.916 45.3571 22.1044 45.4367 22.2634 45.5957C22.4224 45.7547 22.502 45.9431 22.502 46.1607V51.7857ZM35.3591 11.6071V53.3929C35.3591 53.8281 35.2001 54.2048 34.882 54.5229C34.5639 54.841 34.1872 55 33.752 55H1.6091C1.17383 55 0.797154 54.841 0.479074 54.5229C0.160993 54.2048 0.00195312 53.8281 0.00195312 53.3929V11.6071C0.00195312 11.1719 0.160993 10.7952 0.479074 10.4771C0.797154 10.159 1.17383 10 1.6091 10H33.752C34.1872 10 34.5639 10.159 34.882 10.4771C35.2001 10.7952 35.3591 11.1719 35.3591 11.6071Z" fill="#FAFAFA"/>
</svg>
