<svg width="10" height="14" viewBox="0 0 10 14" fill="none" xmlns="http://www.w3.org/2000/svg">
<path d="M8.5106 1.09821C8.62184 1.09821 8.72824 1.11998 8.8298 1.1635C8.9894 1.22638 9.11635 1.32552 9.21066 1.46094C9.30497 1.59635 9.35212 1.74628 9.35212 1.91071V11.2617C9.35212 11.4262 9.30497 11.5761 9.21066 11.7115C9.11635 11.8469 8.9894 11.9461 8.8298 12.0089C8.73791 12.0476 8.63151 12.067 8.5106 12.067C8.27846 12.067 8.07775 11.9896 7.90848 11.8348L4.70926 8.75893L1.51004 11.8348C1.33594 11.9944 1.13523 12.0742 0.907924 12.0742C0.796689 12.0742 0.69029 12.0525 0.588728 12.0089C0.429129 11.9461 0.302176 11.8469 0.207868 11.7115C0.11356 11.5761 0.0664062 11.4262 0.0664062 11.2617V1.91071C0.0664062 1.74628 0.11356 1.59635 0.207868 1.46094C0.302176 1.32552 0.429129 1.22638 0.588728 1.1635C0.69029 1.11998 0.796689 1.09821 0.907924 1.09821H8.5106Z" fill="#F39F07"/>
</svg>
