<svg width="35" height="34" viewBox="0 0 35 34" fill="none" xmlns="http://www.w3.org/2000/svg">
<path d="M18.6889 20.4129V22.1791C18.6889 22.553 18.5801 22.74 18.3624 22.74C18.2341 22.74 18.1085 22.6786 17.9858 22.5558V20.0363C18.1085 19.9135 18.2341 19.8521 18.3624 19.8521C18.5801 19.8521 18.6889 20.0391 18.6889 20.4129ZM21.5181 20.4213V20.8064H20.7648V20.4213C20.7648 20.0419 20.8903 19.8521 21.1415 19.8521C21.3926 19.8521 21.5181 20.0419 21.5181 20.4213ZM13.4322 18.5965H14.3278V17.8097H11.7162V18.5965H12.5951V23.3594H13.4322V18.5965ZM15.8429 23.3594H16.5879V19.2243H15.8429V22.3884C15.6755 22.6228 15.5165 22.74 15.3658 22.74C15.2653 22.74 15.2068 22.6814 15.19 22.5642C15.1844 22.5474 15.1816 22.4498 15.1816 22.2712V19.2243H14.4367V22.4972C14.4367 22.7706 14.459 22.9743 14.5036 23.1083C14.5706 23.3147 14.7324 23.418 14.9891 23.418C15.257 23.418 15.5416 23.2478 15.8429 22.9074V23.3594ZM19.4339 22.1205V20.4715C19.4339 20.0642 19.4088 19.7879 19.3585 19.6429C19.2637 19.3304 19.0656 19.1741 18.7642 19.1741C18.4852 19.1741 18.2257 19.3248 17.9858 19.6261V17.8097H17.2408V23.3594H17.9858V22.9576C18.2369 23.2645 18.4964 23.418 18.7642 23.418C19.0656 23.418 19.2637 23.2645 19.3585 22.9576C19.4088 22.8069 19.4339 22.5279 19.4339 22.1205ZM22.2631 22.0368V21.928H21.5014C21.5014 22.2126 21.4958 22.3828 21.4847 22.4386C21.4456 22.6395 21.334 22.74 21.1498 22.74C20.8931 22.74 20.7648 22.5474 20.7648 22.1624V21.4342H22.2631V20.572C22.2631 20.1311 22.1878 19.8075 22.0371 19.601C21.8195 19.3164 21.5237 19.1741 21.1498 19.1741C20.7704 19.1741 20.4718 19.3164 20.2542 19.601C20.0979 19.8075 20.0198 20.1311 20.0198 20.572V22.0201C20.0198 22.4609 20.1007 22.7846 20.2626 22.9911C20.4802 23.2757 20.7815 23.418 21.1666 23.418C21.5684 23.418 21.8697 23.2701 22.0706 22.9743C22.171 22.8237 22.2296 22.673 22.2464 22.5223C22.2575 22.4721 22.2631 22.3103 22.2631 22.0368ZM17.1738 14.3945V12.6367C17.1738 12.2517 17.0539 12.0592 16.8139 12.0592C16.5739 12.0592 16.454 12.2517 16.454 12.6367V14.3945C16.454 14.7852 16.5739 14.9805 16.8139 14.9805C17.0539 14.9805 17.1738 14.7852 17.1738 14.3945ZM23.1922 20.6808C23.1922 21.9866 23.1197 22.9632 22.9746 23.6105C22.8965 23.9397 22.7347 24.216 22.4891 24.4392C22.2436 24.6624 21.959 24.7907 21.6353 24.8242C20.6085 24.9414 19.06 25 16.9897 25C14.9194 25 13.3708 24.9414 12.344 24.8242C12.0204 24.7907 11.7344 24.6624 11.486 24.4392C11.2377 24.216 11.0773 23.9397 11.0047 23.6105C10.8597 22.9855 10.7871 22.0089 10.7871 20.6808C10.7871 19.375 10.8597 18.3984 11.0047 17.7511C11.0829 17.4219 11.2447 17.1456 11.4902 16.9224C11.7358 16.6992 12.0232 16.5681 12.3524 16.529C13.3736 16.4174 14.9194 16.3616 16.9897 16.3616C19.06 16.3616 20.6085 16.4174 21.6353 16.529C21.959 16.5681 22.245 16.6992 22.4933 16.9224C22.7416 17.1456 22.9021 17.4219 22.9746 17.7511C23.1197 18.3761 23.1922 19.3527 23.1922 20.6808ZM14.8384 10H15.6922L14.6794 13.3398V15.6083H13.8424V13.3398C13.7642 12.9269 13.594 12.3354 13.3318 11.5653C13.1253 10.9905 12.9439 10.4688 12.7877 10H13.6749L14.2693 12.2015L14.8384 10ZM17.9355 12.7874V14.2522C17.9355 14.7042 17.8574 15.0335 17.7012 15.24C17.4891 15.5246 17.1934 15.6669 16.8139 15.6669C16.44 15.6669 16.147 15.5246 15.935 15.24C15.7787 15.0279 15.7006 14.6987 15.7006 14.2522V12.7874C15.7006 12.341 15.7787 12.0145 15.935 11.808C16.147 11.5234 16.44 11.3811 16.8139 11.3811C17.1934 11.3811 17.4891 11.5234 17.7012 11.808C17.8574 12.0145 17.9355 12.341 17.9355 12.7874ZM20.7397 11.4314V15.6083H19.978V15.1479C19.6822 15.4939 19.3948 15.6669 19.1158 15.6669C18.8591 15.6669 18.6945 15.5636 18.6219 15.3571C18.5773 15.2232 18.555 15.014 18.555 14.7294V11.4314H19.3167V14.5033C19.3167 14.6875 19.3195 14.7852 19.3251 14.7963C19.3418 14.9191 19.4004 14.9805 19.5008 14.9805C19.6515 14.9805 19.8105 14.8605 19.978 14.6205V11.4314H20.7397Z" fill="#B7B7B7"/>
</svg>
