<svg width="1440" height="146" viewBox="0 0 1440 146" fill="none" xmlns="http://www.w3.org/2000/svg">
<rect width="1440" height="146" fill="#F79830"/>
<path d="M200.731 50.2764C201.2 50.6112 201.434 51.0548 201.434 51.6073V86.9644C201.434 87.2992 201.342 87.6006 201.158 87.8684C200.974 88.1363 200.731 88.3288 200.43 88.446L184.358 94.8746C183.957 95.0587 183.555 95.0587 183.153 94.8746L167.684 88.6971L152.216 94.8746C152.048 94.9583 151.847 95.0001 151.613 95.0001C151.295 95.0001 150.993 94.9081 150.709 94.7239C150.24 94.3891 150.006 93.9455 150.006 93.393V58.0359C150.006 57.701 150.098 57.3997 150.282 57.1318C150.466 56.864 150.709 56.6715 151.01 56.5543L167.082 50.1257C167.483 49.9416 167.885 49.9416 168.287 50.1257L183.756 56.3032L199.224 50.1257C199.76 49.9081 200.262 49.9583 200.731 50.2764ZM168.488 53.6664V85.5582L182.952 91.3338V59.4421L168.488 53.6664ZM153.22 59.1157V91.0074L166.881 85.5582V53.6664L153.22 59.1157ZM198.22 85.8846V53.9929L184.559 59.4421V91.3338L198.22 85.8846Z" fill="#FAFAFA"/>
<path d="M238.708 99.5V89.7H239.31L243.86 97.554H243.538L248.074 89.7H248.662L248.676 99.5H247.976L247.962 90.778H248.158L243.86 98.198H243.51L239.198 90.778H239.408V99.5H238.708ZM255.337 99.556C254.599 99.556 253.946 99.3973 253.377 99.08C252.817 98.7627 252.373 98.324 252.047 97.764C251.729 97.204 251.571 96.5647 251.571 95.846C251.571 95.118 251.72 94.4787 252.019 93.928C252.327 93.368 252.747 92.9293 253.279 92.612C253.811 92.2947 254.408 92.136 255.071 92.136C255.733 92.136 256.326 92.29 256.849 92.598C257.381 92.906 257.796 93.34 258.095 93.9C258.403 94.4507 258.557 95.09 258.557 95.818C258.557 95.846 258.552 95.8787 258.543 95.916C258.543 95.944 258.543 95.9767 258.543 96.014H252.089V95.468H258.165L257.885 95.734C257.894 95.1647 257.773 94.656 257.521 94.208C257.278 93.7507 256.947 93.396 256.527 93.144C256.107 92.8827 255.621 92.752 255.071 92.752C254.529 92.752 254.044 92.8827 253.615 93.144C253.195 93.396 252.863 93.7507 252.621 94.208C252.378 94.656 252.257 95.1693 252.257 95.748V95.874C252.257 96.4713 252.387 97.0033 252.649 97.47C252.919 97.9273 253.288 98.2867 253.755 98.548C254.221 98.8 254.753 98.926 255.351 98.926C255.817 98.926 256.251 98.842 256.653 98.674C257.063 98.506 257.409 98.2493 257.689 97.904L258.095 98.366C257.777 98.758 257.376 99.0567 256.891 99.262C256.415 99.458 255.897 99.556 255.337 99.556ZM270.322 92.136C270.91 92.136 271.419 92.2527 271.848 92.486C272.287 92.71 272.628 93.0553 272.87 93.522C273.113 93.9793 273.234 94.5487 273.234 95.23V99.5H272.534V95.286C272.534 94.4647 272.334 93.8393 271.932 93.41C271.531 92.9807 270.971 92.766 270.252 92.766C269.702 92.766 269.226 92.8827 268.824 93.116C268.423 93.3493 268.115 93.676 267.9 94.096C267.686 94.516 267.578 95.02 267.578 95.608V99.5H266.878V95.286C266.878 94.4647 266.678 93.8393 266.276 93.41C265.875 92.9807 265.315 92.766 264.596 92.766C264.046 92.766 263.57 92.8827 263.168 93.116C262.767 93.3493 262.459 93.676 262.244 94.096C262.03 94.516 261.922 95.02 261.922 95.608V99.5H261.222V92.192H261.894V94.208L261.796 93.984C262.011 93.4147 262.37 92.9667 262.874 92.64C263.378 92.304 263.985 92.136 264.694 92.136C265.422 92.136 266.034 92.3227 266.528 92.696C267.032 93.06 267.35 93.606 267.48 94.334L267.242 94.236C267.438 93.6107 267.807 93.1067 268.348 92.724C268.89 92.332 269.548 92.136 270.322 92.136ZM280.293 99.556C279.649 99.556 279.065 99.4067 278.543 99.108C278.029 98.8093 277.619 98.38 277.311 97.82C277.012 97.26 276.863 96.602 276.863 95.846C276.863 95.0713 277.012 94.4087 277.311 93.858C277.619 93.3073 278.029 92.8827 278.543 92.584C279.065 92.2853 279.649 92.136 280.293 92.136C280.983 92.136 281.599 92.2947 282.141 92.612C282.691 92.92 283.121 93.354 283.429 93.914C283.746 94.4647 283.905 95.1087 283.905 95.846C283.905 96.574 283.746 97.218 283.429 97.778C283.121 98.338 282.691 98.7767 282.141 99.094C281.599 99.402 280.983 99.556 280.293 99.556ZM276.625 99.5V89.112H277.325V94.558L277.185 95.832L277.297 97.106V99.5H276.625ZM280.251 98.926C280.811 98.926 281.315 98.8 281.763 98.548C282.211 98.2867 282.561 97.9227 282.813 97.456C283.074 96.9893 283.205 96.4527 283.205 95.846C283.205 95.23 283.074 94.6933 282.813 94.236C282.561 93.7693 282.211 93.41 281.763 93.158C281.315 92.8967 280.811 92.766 280.251 92.766C279.691 92.766 279.187 92.8967 278.739 93.158C278.3 93.41 277.95 93.7693 277.689 94.236C277.437 94.6933 277.311 95.23 277.311 95.846C277.311 96.4527 277.437 96.9893 277.689 97.456C277.95 97.9227 278.3 98.2867 278.739 98.548C279.187 98.8 279.691 98.926 280.251 98.926ZM289.54 99.556C288.803 99.556 288.149 99.3973 287.58 99.08C287.02 98.7627 286.577 98.324 286.25 97.764C285.933 97.204 285.774 96.5647 285.774 95.846C285.774 95.118 285.923 94.4787 286.222 93.928C286.53 93.368 286.95 92.9293 287.482 92.612C288.014 92.2947 288.611 92.136 289.274 92.136C289.937 92.136 290.529 92.29 291.052 92.598C291.584 92.906 291.999 93.34 292.298 93.9C292.606 94.4507 292.76 95.09 292.76 95.818C292.76 95.846 292.755 95.8787 292.746 95.916C292.746 95.944 292.746 95.9767 292.746 96.014H286.292V95.468H292.368L292.088 95.734C292.097 95.1647 291.976 94.656 291.724 94.208C291.481 93.7507 291.15 93.396 290.73 93.144C290.31 92.8827 289.825 92.752 289.274 92.752C288.733 92.752 288.247 92.8827 287.818 93.144C287.398 93.396 287.067 93.7507 286.824 94.208C286.581 94.656 286.46 95.1693 286.46 95.748V95.874C286.46 96.4713 286.591 97.0033 286.852 97.47C287.123 97.9273 287.491 98.2867 287.958 98.548C288.425 98.8 288.957 98.926 289.554 98.926C290.021 98.926 290.455 98.842 290.856 98.674C291.267 98.506 291.612 98.2493 291.892 97.904L292.298 98.366C291.981 98.758 291.579 99.0567 291.094 99.262C290.618 99.458 290.1 99.556 289.54 99.556ZM295.425 99.5V92.192H296.097V94.194L296.027 93.97C296.233 93.382 296.578 92.9293 297.063 92.612C297.549 92.2947 298.155 92.136 298.883 92.136V92.822C298.855 92.822 298.827 92.822 298.799 92.822C298.771 92.8127 298.743 92.808 298.715 92.808C297.903 92.808 297.269 93.0647 296.811 93.578C296.354 94.082 296.125 94.7867 296.125 95.692V99.5H295.425ZM308.429 99.556C307.72 99.556 307.085 99.3973 306.525 99.08C305.974 98.7627 305.536 98.324 305.209 97.764C304.892 97.204 304.733 96.5647 304.733 95.846C304.733 95.118 304.892 94.474 305.209 93.914C305.536 93.354 305.974 92.92 306.525 92.612C307.085 92.2947 307.72 92.136 308.429 92.136C309.017 92.136 309.549 92.248 310.025 92.472C310.51 92.696 310.902 93.032 311.201 93.48L310.683 93.858C310.422 93.4847 310.095 93.2093 309.703 93.032C309.311 92.8547 308.886 92.766 308.429 92.766C307.86 92.766 307.346 92.8967 306.889 93.158C306.441 93.41 306.086 93.7693 305.825 94.236C305.573 94.6933 305.447 95.23 305.447 95.846C305.447 96.462 305.573 97.0033 305.825 97.47C306.086 97.9273 306.441 98.2867 306.889 98.548C307.346 98.8 307.86 98.926 308.429 98.926C308.886 98.926 309.311 98.8373 309.703 98.66C310.095 98.4827 310.422 98.2073 310.683 97.834L311.201 98.212C310.902 98.66 310.51 98.996 310.025 99.22C309.549 99.444 309.017 99.556 308.429 99.556ZM316.529 99.556C315.829 99.556 315.204 99.3973 314.653 99.08C314.112 98.7627 313.678 98.324 313.351 97.764C313.034 97.204 312.875 96.5647 312.875 95.846C312.875 95.118 313.034 94.4787 313.351 93.928C313.678 93.368 314.112 92.9293 314.653 92.612C315.204 92.2947 315.829 92.136 316.529 92.136C317.229 92.136 317.855 92.2947 318.405 92.612C318.956 92.9293 319.39 93.368 319.707 93.928C320.025 94.4787 320.183 95.118 320.183 95.846C320.183 96.5647 320.025 97.204 319.707 97.764C319.39 98.324 318.956 98.7627 318.405 99.08C317.855 99.3973 317.229 99.556 316.529 99.556ZM316.529 98.926C317.089 98.926 317.593 98.8 318.041 98.548C318.489 98.2867 318.839 97.9227 319.091 97.456C319.343 96.9893 319.469 96.4527 319.469 95.846C319.469 95.23 319.343 94.6933 319.091 94.236C318.839 93.7693 318.489 93.41 318.041 93.158C317.593 92.8967 317.089 92.766 316.529 92.766C315.969 92.766 315.465 92.8967 315.017 93.158C314.579 93.41 314.229 93.7693 313.967 94.236C313.715 94.6933 313.589 95.23 313.589 95.846C313.589 96.4527 313.715 96.9893 313.967 97.456C314.229 97.9227 314.579 98.2867 315.017 98.548C315.465 98.8 315.969 98.926 316.529 98.926ZM325.823 99.556C325.198 99.556 324.656 99.444 324.199 99.22C323.742 98.9867 323.387 98.6413 323.135 98.184C322.892 97.7173 322.771 97.1433 322.771 96.462V92.192H323.471V96.406C323.471 97.2273 323.681 97.8527 324.101 98.282C324.521 98.7113 325.114 98.926 325.879 98.926C326.43 98.926 326.906 98.8093 327.307 98.576C327.708 98.3427 328.016 98.016 328.231 97.596C328.446 97.1667 328.553 96.6627 328.553 96.084V92.192H329.253V99.5H328.581V97.47L328.679 97.708C328.464 98.2773 328.105 98.73 327.601 99.066C327.106 99.3927 326.514 99.556 325.823 99.556ZM336.29 92.136C336.888 92.136 337.406 92.2527 337.844 92.486C338.292 92.71 338.638 93.0553 338.88 93.522C339.132 93.9793 339.258 94.5487 339.258 95.23V99.5H338.558V95.286C338.558 94.4647 338.348 93.8393 337.928 93.41C337.518 92.9807 336.939 92.766 336.192 92.766C335.623 92.766 335.128 92.8827 334.708 93.116C334.288 93.3493 333.966 93.676 333.742 94.096C333.528 94.516 333.42 95.02 333.42 95.608V99.5H332.72V92.192H333.392V94.222L333.294 93.998C333.518 93.4193 333.887 92.9667 334.4 92.64C334.914 92.304 335.544 92.136 336.29 92.136ZM344.768 99.556C344.124 99.556 343.63 99.3787 343.284 99.024C342.948 98.6693 342.78 98.184 342.78 97.568V90.596H343.48V97.498C343.48 97.9647 343.597 98.324 343.83 98.576C344.064 98.828 344.4 98.954 344.838 98.954C345.296 98.954 345.674 98.8187 345.972 98.548L346.266 99.038C346.08 99.2153 345.851 99.346 345.58 99.43C345.319 99.514 345.048 99.556 344.768 99.556ZM341.436 92.794V92.192H345.804V92.794H341.436ZM348.718 99.5V92.192H349.39V94.194L349.32 93.97C349.526 93.382 349.871 92.9293 350.356 92.612C350.842 92.2947 351.448 92.136 352.176 92.136V92.822C352.148 92.822 352.12 92.822 352.092 92.822C352.064 92.8127 352.036 92.808 352.008 92.808C351.196 92.808 350.562 93.0647 350.104 93.578C349.647 94.082 349.418 94.7867 349.418 95.692V99.5H348.718ZM354.605 99.5V92.192H355.305V99.5H354.605ZM354.955 90.414C354.796 90.414 354.661 90.358 354.549 90.246C354.437 90.134 354.381 90.0033 354.381 89.854C354.381 89.6953 354.437 89.56 354.549 89.448C354.661 89.336 354.796 89.28 354.955 89.28C355.123 89.28 355.258 89.336 355.361 89.448C355.473 89.5507 355.529 89.6813 355.529 89.84C355.529 89.9987 355.473 90.134 355.361 90.246C355.258 90.358 355.123 90.414 354.955 90.414ZM361.723 99.556C360.986 99.556 360.333 99.3973 359.763 99.08C359.203 98.7627 358.76 98.324 358.433 97.764C358.116 97.204 357.957 96.5647 357.957 95.846C357.957 95.118 358.107 94.4787 358.405 93.928C358.713 93.368 359.133 92.9293 359.665 92.612C360.197 92.2947 360.795 92.136 361.457 92.136C362.12 92.136 362.713 92.29 363.235 92.598C363.767 92.906 364.183 93.34 364.481 93.9C364.789 94.4507 364.943 95.09 364.943 95.818C364.943 95.846 364.939 95.8787 364.929 95.916C364.929 95.944 364.929 95.9767 364.929 96.014H358.475V95.468H364.551L364.271 95.734C364.281 95.1647 364.159 94.656 363.907 94.208C363.665 93.7507 363.333 93.396 362.913 93.144C362.493 92.8827 362.008 92.752 361.457 92.752C360.916 92.752 360.431 92.8827 360.001 93.144C359.581 93.396 359.25 93.7507 359.007 94.208C358.765 94.656 358.643 95.1693 358.643 95.748V95.874C358.643 96.4713 358.774 97.0033 359.035 97.47C359.306 97.9273 359.675 98.2867 360.141 98.548C360.608 98.8 361.14 98.926 361.737 98.926C362.204 98.926 362.638 98.842 363.039 98.674C363.45 98.506 363.795 98.2493 364.075 97.904L364.481 98.366C364.164 98.758 363.763 99.0567 363.277 99.262C362.801 99.458 362.283 99.556 361.723 99.556ZM369.457 99.556C368.85 99.556 368.281 99.4673 367.749 99.29C367.226 99.1127 366.82 98.8887 366.531 98.618L366.853 98.058C367.133 98.3007 367.506 98.5107 367.973 98.688C368.44 98.856 368.944 98.94 369.485 98.94C370.25 98.94 370.801 98.814 371.137 98.562C371.473 98.31 371.641 97.9787 371.641 97.568C371.641 97.2693 371.552 97.036 371.375 96.868C371.207 96.6907 370.978 96.5553 370.689 96.462C370.4 96.3687 370.082 96.294 369.737 96.238C369.392 96.1727 369.046 96.1027 368.701 96.028C368.356 95.9533 368.038 95.846 367.749 95.706C367.46 95.566 367.226 95.3747 367.049 95.132C366.881 94.88 366.797 94.5487 366.797 94.138C366.797 93.7647 366.9 93.4287 367.105 93.13C367.31 92.8313 367.618 92.5933 368.029 92.416C368.44 92.2293 368.953 92.136 369.569 92.136C370.026 92.136 370.484 92.2013 370.941 92.332C371.408 92.4627 371.786 92.6353 372.075 92.85L371.753 93.41C371.445 93.1767 371.1 93.0087 370.717 92.906C370.334 92.8033 369.947 92.752 369.555 92.752C368.846 92.752 368.323 92.8827 367.987 93.144C367.66 93.4053 367.497 93.732 367.497 94.124C367.497 94.432 367.581 94.6793 367.749 94.866C367.926 95.0433 368.16 95.1833 368.449 95.286C368.738 95.3793 369.056 95.4587 369.401 95.524C369.746 95.58 370.092 95.6453 370.437 95.72C370.782 95.7947 371.1 95.902 371.389 96.042C371.678 96.1727 371.907 96.3593 372.075 96.602C372.252 96.8353 372.341 97.1527 372.341 97.554C372.341 97.9553 372.229 98.3053 372.005 98.604C371.79 98.9027 371.468 99.136 371.039 99.304C370.61 99.472 370.082 99.556 369.457 99.556Z" fill="#FAFAFA"/>
<path d="M247.956 48.7783H248.167V50.8481H247.956C246.664 50.8481 245.583 51.0591 244.712 51.481C243.842 51.894 243.152 52.4521 242.643 53.1553C242.133 53.8496 241.764 54.6318 241.535 55.502C241.315 56.3721 241.206 57.2554 241.206 58.1519V60.9731C241.206 61.8257 241.307 62.5815 241.509 63.2407C241.711 63.8911 241.988 64.4404 242.339 64.8887C242.691 65.3369 243.086 65.6753 243.526 65.9038C243.974 66.1323 244.44 66.2466 244.923 66.2466C245.486 66.2466 245.987 66.1411 246.426 65.9302C246.866 65.7104 247.235 65.4072 247.534 65.0205C247.841 64.625 248.074 64.1592 248.232 63.623C248.391 63.0869 248.47 62.498 248.47 61.8564C248.47 61.2852 248.399 60.7358 248.259 60.2085C248.118 59.6724 247.903 59.1978 247.613 58.7847C247.323 58.3628 246.958 58.0332 246.519 57.7959C246.088 57.5498 245.574 57.4268 244.976 57.4268C244.299 57.4268 243.667 57.5938 243.078 57.9277C242.498 58.2529 242.019 58.6836 241.641 59.2197C241.271 59.7471 241.061 60.3228 241.008 60.9468L239.716 60.9336C239.839 59.9492 240.067 59.1099 240.401 58.4155C240.744 57.7124 241.166 57.1411 241.667 56.7017C242.177 56.2534 242.744 55.9282 243.368 55.7261C244 55.5151 244.668 55.4097 245.372 55.4097C246.33 55.4097 247.156 55.5898 247.85 55.9502C248.544 56.3105 249.116 56.7939 249.564 57.4004C250.012 57.998 250.342 58.6748 250.553 59.4307C250.772 60.1777 250.882 60.9468 250.882 61.7378C250.882 62.6431 250.755 63.4912 250.5 64.2822C250.245 65.0732 249.863 65.7676 249.353 66.3652C248.852 66.9629 248.232 67.4287 247.494 67.7627C246.756 68.0967 245.899 68.2637 244.923 68.2637C243.886 68.2637 242.981 68.0527 242.208 67.6309C241.434 67.2002 240.792 66.6289 240.283 65.917C239.773 65.2051 239.391 64.4141 239.136 63.5439C238.881 62.6738 238.753 61.7905 238.753 60.894V59.7471C238.753 58.3936 238.89 57.0664 239.162 55.7656C239.435 54.4648 239.905 53.2871 240.573 52.2324C241.25 51.1777 242.186 50.3384 243.381 49.7144C244.576 49.0903 246.101 48.7783 247.956 48.7783ZM261.798 48.6992V68H259.359V51.7446L254.442 53.5376V51.3359L261.416 48.6992H261.798Z" fill="#FAFAFA"/>
<path d="M549.644 82.9464V84.5536C549.644 84.7712 549.565 84.9595 549.406 85.1186C549.247 85.2776 549.058 85.3571 548.841 85.3571H547.234C547.016 85.3571 546.828 85.2776 546.669 85.1186C546.51 84.9595 546.43 84.7712 546.43 84.5536V82.9464C546.43 82.7288 546.51 82.5405 546.669 82.3814C546.828 82.2224 547.016 82.1429 547.234 82.1429H548.841C549.058 82.1429 549.247 82.2224 549.406 82.3814C549.565 82.5405 549.644 82.7288 549.644 82.9464ZM549.644 76.5179V78.125C549.644 78.3426 549.565 78.531 549.406 78.69C549.247 78.8491 549.058 78.9286 548.841 78.9286H547.234C547.016 78.9286 546.828 78.8491 546.669 78.69C546.51 78.531 546.43 78.3426 546.43 78.125V76.5179C546.43 76.3002 546.51 76.1119 546.669 75.9528C546.828 75.7938 547.016 75.7143 547.234 75.7143H548.841C549.058 75.7143 549.247 75.7938 549.406 75.9528C549.565 76.1119 549.644 76.3002 549.644 76.5179ZM556.073 76.5179V78.125C556.073 78.3426 555.993 78.531 555.834 78.69C555.675 78.8491 555.487 78.9286 555.269 78.9286H553.662C553.445 78.9286 553.256 78.8491 553.097 78.69C552.938 78.531 552.859 78.3426 552.859 78.125V76.5179C552.859 76.3002 552.938 76.1119 553.097 75.9528C553.256 75.7938 553.445 75.7143 553.662 75.7143H555.269C555.487 75.7143 555.675 75.7938 555.834 75.9528C555.993 76.1119 556.073 76.3002 556.073 76.5179ZM549.644 70.0893V71.6964C549.644 71.9141 549.565 72.1024 549.406 72.2614C549.247 72.4205 549.058 72.5 548.841 72.5H547.234C547.016 72.5 546.828 72.4205 546.669 72.2614C546.51 72.1024 546.43 71.9141 546.43 71.6964V70.0893C546.43 69.8717 546.51 69.6833 546.669 69.5243C546.828 69.3652 547.016 69.2857 547.234 69.2857H548.841C549.058 69.2857 549.247 69.3652 549.406 69.5243C549.565 69.6833 549.644 69.8717 549.644 70.0893ZM568.93 82.9464V84.5536C568.93 84.7712 568.851 84.9595 568.691 85.1186C568.532 85.2776 568.344 85.3571 568.126 85.3571H566.519C566.302 85.3571 566.113 85.2776 565.954 85.1186C565.795 84.9595 565.716 84.7712 565.716 84.5536V82.9464C565.716 82.7288 565.795 82.5405 565.954 82.3814C566.113 82.2224 566.302 82.1429 566.519 82.1429H568.126C568.344 82.1429 568.532 82.2224 568.691 82.3814C568.851 82.5405 568.93 82.7288 568.93 82.9464ZM562.501 76.5179V78.125C562.501 78.3426 562.422 78.531 562.263 78.69C562.104 78.8491 561.916 78.9286 561.698 78.9286H560.091C559.873 78.9286 559.685 78.8491 559.526 78.69C559.367 78.531 559.287 78.3426 559.287 78.125V76.5179C559.287 76.3002 559.367 76.1119 559.526 75.9528C559.685 75.7938 559.873 75.7143 560.091 75.7143H561.698C561.916 75.7143 562.104 75.7938 562.263 75.9528C562.422 76.1119 562.501 76.3002 562.501 76.5179ZM556.073 70.0893V71.6964C556.073 71.9141 555.993 72.1024 555.834 72.2614C555.675 72.4205 555.487 72.5 555.269 72.5H553.662C553.445 72.5 553.256 72.4205 553.097 72.2614C552.938 72.1024 552.859 71.9141 552.859 71.6964V70.0893C552.859 69.8717 552.938 69.6833 553.097 69.5243C553.256 69.3652 553.445 69.2857 553.662 69.2857H555.269C555.487 69.2857 555.675 69.3652 555.834 69.5243C555.993 69.6833 556.073 69.8717 556.073 70.0893ZM549.644 63.6607V65.2679C549.644 65.4855 549.565 65.6738 549.406 65.8329C549.247 65.9919 549.058 66.0714 548.841 66.0714H547.234C547.016 66.0714 546.828 65.9919 546.669 65.8329C546.51 65.6738 546.43 65.4855 546.43 65.2679V63.6607C546.43 63.4431 546.51 63.2547 546.669 63.0957C546.828 62.9367 547.016 62.8571 547.234 62.8571H548.841C549.058 62.8571 549.247 62.9367 549.406 63.0957C549.565 63.2547 549.644 63.4431 549.644 63.6607ZM568.93 76.5179V78.125C568.93 78.3426 568.851 78.531 568.691 78.69C568.532 78.8491 568.344 78.9286 568.126 78.9286H566.519C566.302 78.9286 566.113 78.8491 565.954 78.69C565.795 78.531 565.716 78.3426 565.716 78.125V76.5179C565.716 76.3002 565.795 76.1119 565.954 75.9528C566.113 75.7938 566.302 75.7143 566.519 75.7143H568.126C568.344 75.7143 568.532 75.7938 568.691 75.9528C568.851 76.1119 568.93 76.3002 568.93 76.5179ZM562.501 70.0893V71.6964C562.501 71.9141 562.422 72.1024 562.263 72.2614C562.104 72.4205 561.916 72.5 561.698 72.5H560.091C559.873 72.5 559.685 72.4205 559.526 72.2614C559.367 72.1024 559.287 71.9141 559.287 71.6964V70.0893C559.287 69.8717 559.367 69.6833 559.526 69.5243C559.685 69.3652 559.873 69.2857 560.091 69.2857H561.698C561.916 69.2857 562.104 69.3652 562.263 69.5243C562.422 69.6833 562.501 69.8717 562.501 70.0893ZM556.073 63.6607V65.2679C556.073 65.4855 555.993 65.6738 555.834 65.8329C555.675 65.9919 555.487 66.0714 555.269 66.0714H553.662C553.445 66.0714 553.256 65.9919 553.097 65.8329C552.938 65.6738 552.859 65.4855 552.859 65.2679V63.6607C552.859 63.4431 552.938 63.2547 553.097 63.0957C553.256 62.9367 553.445 62.8571 553.662 62.8571H555.269C555.487 62.8571 555.675 62.9367 555.834 63.0957C555.993 63.2547 556.073 63.4431 556.073 63.6607ZM549.644 57.2321V58.8393C549.644 59.0569 549.565 59.2453 549.406 59.4043C549.247 59.5633 549.058 59.6429 548.841 59.6429H547.234C547.016 59.6429 546.828 59.5633 546.669 59.4043C546.51 59.2453 546.43 59.0569 546.43 58.8393V57.2321C546.43 57.0145 546.51 56.8262 546.669 56.6671C546.828 56.5081 547.016 56.4286 547.234 56.4286H548.841C549.058 56.4286 549.247 56.5081 549.406 56.6671C549.565 56.8262 549.644 57.0145 549.644 57.2321ZM568.93 70.0893V71.6964C568.93 71.9141 568.851 72.1024 568.691 72.2614C568.532 72.4205 568.344 72.5 568.126 72.5H566.519C566.302 72.5 566.113 72.4205 565.954 72.2614C565.795 72.1024 565.716 71.9141 565.716 71.6964V70.0893C565.716 69.8717 565.795 69.6833 565.954 69.5243C566.113 69.3652 566.302 69.2857 566.519 69.2857H568.126C568.344 69.2857 568.532 69.3652 568.691 69.5243C568.851 69.6833 568.93 69.8717 568.93 70.0893ZM562.501 63.6607V65.2679C562.501 65.4855 562.422 65.6738 562.263 65.8329C562.104 65.9919 561.916 66.0714 561.698 66.0714H560.091C559.873 66.0714 559.685 65.9919 559.526 65.8329C559.367 65.6738 559.287 65.4855 559.287 65.2679V63.6607C559.287 63.4431 559.367 63.2547 559.526 63.0957C559.685 62.9367 559.873 62.8571 560.091 62.8571H561.698C561.916 62.8571 562.104 62.9367 562.263 63.0957C562.422 63.2547 562.501 63.4431 562.501 63.6607ZM556.073 57.2321V58.8393C556.073 59.0569 555.993 59.2453 555.834 59.4043C555.675 59.5633 555.487 59.6429 555.269 59.6429H553.662C553.445 59.6429 553.256 59.5633 553.097 59.4043C552.938 59.2453 552.859 59.0569 552.859 58.8393V57.2321C552.859 57.0145 552.938 56.8262 553.097 56.6671C553.256 56.5081 553.445 56.4286 553.662 56.4286H555.269C555.487 56.4286 555.675 56.5081 555.834 56.6671C555.993 56.8262 556.073 57.0145 556.073 57.2321ZM568.93 63.6607V65.2679C568.93 65.4855 568.851 65.6738 568.691 65.8329C568.532 65.9919 568.344 66.0714 568.126 66.0714H566.519C566.302 66.0714 566.113 65.9919 565.954 65.8329C565.795 65.6738 565.716 65.4855 565.716 65.2679V63.6607C565.716 63.4431 565.795 63.2547 565.954 63.0957C566.113 62.9367 566.302 62.8571 566.519 62.8571H568.126C568.344 62.8571 568.532 62.9367 568.691 63.0957C568.851 63.2547 568.93 63.4431 568.93 63.6607ZM562.501 57.2321V58.8393C562.501 59.0569 562.422 59.2453 562.263 59.4043C562.104 59.5633 561.916 59.6429 561.698 59.6429H560.091C559.873 59.6429 559.685 59.5633 559.526 59.4043C559.367 59.2453 559.287 59.0569 559.287 58.8393V57.2321C559.287 57.0145 559.367 56.8262 559.526 56.6671C559.685 56.5081 559.873 56.4286 560.091 56.4286H561.698C561.916 56.4286 562.104 56.5081 562.263 56.6671C562.422 56.8262 562.501 57.0145 562.501 57.2321ZM568.93 57.2321V58.8393C568.93 59.0569 568.851 59.2453 568.691 59.4043C568.532 59.5633 568.344 59.6429 568.126 59.6429H566.519C566.302 59.6429 566.113 59.5633 565.954 59.4043C565.795 59.2453 565.716 59.0569 565.716 58.8393V57.2321C565.716 57.0145 565.795 56.8262 565.954 56.6671C566.113 56.5081 566.302 56.4286 566.519 56.4286H568.126C568.344 56.4286 568.532 56.5081 568.691 56.6671C568.851 56.8262 568.93 57.0145 568.93 57.2321ZM562.501 91.7857H572.144V53.2143H543.216V91.7857H552.859V86.1607C552.859 85.9431 552.938 85.7547 553.097 85.5957C553.256 85.4367 553.445 85.3571 553.662 85.3571H561.698C561.916 85.3571 562.104 85.4367 562.263 85.5957C562.422 85.7547 562.501 85.9431 562.501 86.1607V91.7857ZM575.359 51.6071V93.3929C575.359 93.8281 575.2 94.2048 574.881 94.5229C574.563 94.841 574.187 95 573.751 95H541.609C541.173 95 540.797 94.841 540.479 94.5229C540.161 94.2048 540.001 93.8281 540.001 93.3929V51.6071C540.001 51.1719 540.161 50.7952 540.479 50.4771C540.797 50.159 541.173 50 541.609 50H573.751C574.187 50 574.563 50.159 574.881 50.4771C575.2 50.7952 575.359 51.1719 575.359 51.6071Z" fill="#FAFAFA"/>
<path d="M632.866 99.57C632.138 99.57 631.461 99.4487 630.836 99.206C630.22 98.954 629.679 98.604 629.212 98.156C628.755 97.6987 628.4 97.1713 628.148 96.574C627.896 95.9673 627.77 95.3093 627.77 94.6C627.77 93.8907 627.896 93.2373 628.148 92.64C628.4 92.0333 628.755 91.506 629.212 91.058C629.679 90.6007 630.22 90.2507 630.836 90.008C631.461 89.756 632.138 89.63 632.866 89.63C633.594 89.63 634.266 89.756 634.882 90.008C635.507 90.2507 636.049 90.596 636.506 91.044C636.963 91.492 637.318 92.0193 637.57 92.626C637.831 93.2233 637.962 93.8813 637.962 94.6C637.962 95.3187 637.831 95.9813 637.57 96.588C637.318 97.1853 636.963 97.708 636.506 98.156C636.049 98.604 635.507 98.954 634.882 99.206C634.266 99.4487 633.594 99.57 632.866 99.57ZM632.866 98.912C633.491 98.912 634.07 98.8047 634.602 98.59C635.134 98.3753 635.596 98.072 635.988 97.68C636.38 97.288 636.683 96.8307 636.898 96.308C637.122 95.7853 637.234 95.216 637.234 94.6C637.234 93.9747 637.122 93.4053 636.898 92.892C636.683 92.3693 636.38 91.912 635.988 91.52C635.596 91.128 635.134 90.8247 634.602 90.61C634.07 90.3953 633.491 90.288 632.866 90.288C632.241 90.288 631.662 90.3953 631.13 90.61C630.598 90.8247 630.131 91.128 629.73 91.52C629.338 91.912 629.03 92.3693 628.806 92.892C628.591 93.4053 628.484 93.9747 628.484 94.6C628.484 95.216 628.591 95.7853 628.806 96.308C629.03 96.8307 629.338 97.288 629.73 97.68C630.131 98.072 630.598 98.3753 631.13 98.59C631.662 98.8047 632.241 98.912 632.866 98.912ZM644.382 99.556C643.738 99.556 643.155 99.4067 642.632 99.108C642.119 98.8093 641.708 98.38 641.4 97.82C641.102 97.26 640.952 96.602 640.952 95.846C640.952 95.0713 641.102 94.4087 641.4 93.858C641.708 93.3073 642.119 92.8827 642.632 92.584C643.155 92.2853 643.738 92.136 644.382 92.136C645.073 92.136 645.689 92.2947 646.23 92.612C646.781 92.92 647.21 93.354 647.518 93.914C647.836 94.4647 647.994 95.1087 647.994 95.846C647.994 96.574 647.836 97.218 647.518 97.778C647.21 98.338 646.781 98.7767 646.23 99.094C645.689 99.402 645.073 99.556 644.382 99.556ZM640.714 99.5V89.112H641.414V94.558L641.274 95.832L641.386 97.106V99.5H640.714ZM644.34 98.926C644.9 98.926 645.404 98.8 645.852 98.548C646.3 98.2867 646.65 97.9227 646.902 97.456C647.164 96.9893 647.294 96.4527 647.294 95.846C647.294 95.23 647.164 94.6933 646.902 94.236C646.65 93.7693 646.3 93.41 645.852 93.158C645.404 92.8967 644.9 92.766 644.34 92.766C643.78 92.766 643.276 92.8967 642.828 93.158C642.39 93.41 642.04 93.7693 641.778 94.236C641.526 94.6933 641.4 95.23 641.4 95.846C641.4 96.4527 641.526 96.9893 641.778 97.456C642.04 97.9227 642.39 98.2867 642.828 98.548C643.276 98.8 643.78 98.926 644.34 98.926ZM652.51 99.556C651.903 99.556 651.334 99.4673 650.802 99.29C650.279 99.1127 649.873 98.8887 649.584 98.618L649.906 98.058C650.186 98.3007 650.559 98.5107 651.026 98.688C651.492 98.856 651.996 98.94 652.538 98.94C653.303 98.94 653.854 98.814 654.19 98.562C654.526 98.31 654.694 97.9787 654.694 97.568C654.694 97.2693 654.605 97.036 654.428 96.868C654.26 96.6907 654.031 96.5553 653.742 96.462C653.452 96.3687 653.135 96.294 652.79 96.238C652.444 96.1727 652.099 96.1027 651.754 96.028C651.408 95.9533 651.091 95.846 650.802 95.706C650.512 95.566 650.279 95.3747 650.102 95.132C649.934 94.88 649.85 94.5487 649.85 94.138C649.85 93.7647 649.952 93.4287 650.158 93.13C650.363 92.8313 650.671 92.5933 651.082 92.416C651.492 92.2293 652.006 92.136 652.622 92.136C653.079 92.136 653.536 92.2013 653.994 92.332C654.46 92.4627 654.838 92.6353 655.128 92.85L654.806 93.41C654.498 93.1767 654.152 93.0087 653.77 92.906C653.387 92.8033 653 92.752 652.608 92.752C651.898 92.752 651.376 92.8827 651.04 93.144C650.713 93.4053 650.55 93.732 650.55 94.124C650.55 94.432 650.634 94.6793 650.802 94.866C650.979 95.0433 651.212 95.1833 651.502 95.286C651.791 95.3793 652.108 95.4587 652.454 95.524C652.799 95.58 653.144 95.6453 653.49 95.72C653.835 95.7947 654.152 95.902 654.442 96.042C654.731 96.1727 654.96 96.3593 655.128 96.602C655.305 96.8353 655.394 97.1527 655.394 97.554C655.394 97.9553 655.282 98.3053 655.058 98.604C654.843 98.9027 654.521 99.136 654.092 99.304C653.662 99.472 653.135 99.556 652.51 99.556ZM660.815 99.556C660.078 99.556 659.425 99.3973 658.855 99.08C658.295 98.7627 657.852 98.324 657.525 97.764C657.208 97.204 657.049 96.5647 657.049 95.846C657.049 95.118 657.199 94.4787 657.497 93.928C657.805 93.368 658.225 92.9293 658.757 92.612C659.289 92.2947 659.887 92.136 660.549 92.136C661.212 92.136 661.805 92.29 662.327 92.598C662.859 92.906 663.275 93.34 663.573 93.9C663.881 94.4507 664.035 95.09 664.035 95.818C664.035 95.846 664.031 95.8787 664.021 95.916C664.021 95.944 664.021 95.9767 664.021 96.014H657.567V95.468H663.643L663.363 95.734C663.373 95.1647 663.251 94.656 662.999 94.208C662.757 93.7507 662.425 93.396 662.005 93.144C661.585 92.8827 661.1 92.752 660.549 92.752C660.008 92.752 659.523 92.8827 659.093 93.144C658.673 93.396 658.342 93.7507 658.099 94.208C657.857 94.656 657.735 95.1693 657.735 95.748V95.874C657.735 96.4713 657.866 97.0033 658.127 97.47C658.398 97.9273 658.767 98.2867 659.233 98.548C659.7 98.8 660.232 98.926 660.829 98.926C661.296 98.926 661.73 98.842 662.131 98.674C662.542 98.506 662.887 98.2493 663.167 97.904L663.573 98.366C663.256 98.758 662.855 99.0567 662.369 99.262C661.893 99.458 661.375 99.556 660.815 99.556ZM666.701 99.5V92.192H667.373V94.194L667.303 93.97C667.508 93.382 667.853 92.9293 668.339 92.612C668.824 92.2947 669.431 92.136 670.159 92.136V92.822C670.131 92.822 670.103 92.822 670.075 92.822C670.047 92.8127 670.019 92.808 669.991 92.808C669.179 92.808 668.544 93.0647 668.087 93.578C667.629 94.082 667.401 94.7867 667.401 95.692V99.5H666.701ZM674.764 99.5L671.474 92.192H672.216L675.296 99.108H674.96L678.068 92.192H678.782L675.478 99.5H674.764ZM683.575 99.556C682.838 99.556 682.184 99.3973 681.615 99.08C681.055 98.7627 680.612 98.324 680.285 97.764C679.968 97.204 679.809 96.5647 679.809 95.846C679.809 95.118 679.958 94.4787 680.257 93.928C680.565 93.368 680.985 92.9293 681.517 92.612C682.049 92.2947 682.646 92.136 683.309 92.136C683.972 92.136 684.564 92.29 685.087 92.598C685.619 92.906 686.034 93.34 686.333 93.9C686.641 94.4507 686.795 95.09 686.795 95.818C686.795 95.846 686.79 95.8787 686.781 95.916C686.781 95.944 686.781 95.9767 686.781 96.014H680.327V95.468H686.403L686.123 95.734C686.132 95.1647 686.011 94.656 685.759 94.208C685.516 93.7507 685.185 93.396 684.765 93.144C684.345 92.8827 683.86 92.752 683.309 92.752C682.768 92.752 682.282 92.8827 681.853 93.144C681.433 93.396 681.102 93.7507 680.859 94.208C680.616 94.656 680.495 95.1693 680.495 95.748V95.874C680.495 96.4713 680.626 97.0033 680.887 97.47C681.158 97.9273 681.526 98.2867 681.993 98.548C682.46 98.8 682.992 98.926 683.589 98.926C684.056 98.926 684.49 98.842 684.891 98.674C685.302 98.506 685.647 98.2493 685.927 97.904L686.333 98.366C686.016 98.758 685.614 99.0567 685.129 99.262C684.653 99.458 684.135 99.556 683.575 99.556ZM689.461 99.5V92.192H690.133V94.194L690.063 93.97C690.268 93.382 690.613 92.9293 691.099 92.612C691.584 92.2947 692.191 92.136 692.919 92.136V92.822C692.891 92.822 692.863 92.822 692.835 92.822C692.807 92.8127 692.779 92.808 692.751 92.808C691.939 92.808 691.304 93.0647 690.847 93.578C690.389 94.082 690.161 94.7867 690.161 95.692V99.5H689.461ZM701.414 99.556C700.807 99.556 700.238 99.4673 699.706 99.29C699.183 99.1127 698.777 98.8887 698.488 98.618L698.81 98.058C699.09 98.3007 699.463 98.5107 699.93 98.688C700.397 98.856 700.901 98.94 701.442 98.94C702.207 98.94 702.758 98.814 703.094 98.562C703.43 98.31 703.598 97.9787 703.598 97.568C703.598 97.2693 703.509 97.036 703.332 96.868C703.164 96.6907 702.935 96.5553 702.646 96.462C702.357 96.3687 702.039 96.294 701.694 96.238C701.349 96.1727 701.003 96.1027 700.658 96.028C700.313 95.9533 699.995 95.846 699.706 95.706C699.417 95.566 699.183 95.3747 699.006 95.132C698.838 94.88 698.754 94.5487 698.754 94.138C698.754 93.7647 698.857 93.4287 699.062 93.13C699.267 92.8313 699.575 92.5933 699.986 92.416C700.397 92.2293 700.91 92.136 701.526 92.136C701.983 92.136 702.441 92.2013 702.898 92.332C703.365 92.4627 703.743 92.6353 704.032 92.85L703.71 93.41C703.402 93.1767 703.057 93.0087 702.674 92.906C702.291 92.8033 701.904 92.752 701.512 92.752C700.803 92.752 700.28 92.8827 699.944 93.144C699.617 93.4053 699.454 93.732 699.454 94.124C699.454 94.432 699.538 94.6793 699.706 94.866C699.883 95.0433 700.117 95.1833 700.406 95.286C700.695 95.3793 701.013 95.4587 701.358 95.524C701.703 95.58 702.049 95.6453 702.394 95.72C702.739 95.7947 703.057 95.902 703.346 96.042C703.635 96.1727 703.864 96.3593 704.032 96.602C704.209 96.8353 704.298 97.1527 704.298 97.554C704.298 97.9553 704.186 98.3053 703.962 98.604C703.747 98.9027 703.425 99.136 702.996 99.304C702.567 99.472 702.039 99.556 701.414 99.556ZM708.88 99.556C708.236 99.556 707.741 99.3787 707.396 99.024C707.06 98.6693 706.892 98.184 706.892 97.568V90.596H707.592V97.498C707.592 97.9647 707.708 98.324 707.942 98.576C708.175 98.828 708.511 98.954 708.95 98.954C709.407 98.954 709.785 98.8187 710.084 98.548L710.378 99.038C710.191 99.2153 709.962 99.346 709.692 99.43C709.43 99.514 709.16 99.556 708.88 99.556ZM705.548 92.794V92.192H709.916V92.794H705.548ZM717.436 99.5V97.834L717.408 97.582V94.838C717.408 94.1567 717.221 93.6387 716.848 93.284C716.484 92.9293 715.947 92.752 715.238 92.752C714.734 92.752 714.262 92.8407 713.824 93.018C713.394 93.186 713.026 93.4053 712.718 93.676L712.368 93.172C712.732 92.8453 713.17 92.5933 713.684 92.416C714.197 92.2293 714.734 92.136 715.294 92.136C716.199 92.136 716.894 92.3647 717.38 92.822C717.865 93.2793 718.108 93.9607 718.108 94.866V99.5H717.436ZM714.804 99.556C714.262 99.556 713.791 99.472 713.39 99.304C712.998 99.1267 712.694 98.8793 712.48 98.562C712.274 98.2447 712.172 97.8807 712.172 97.47C712.172 97.0967 712.256 96.7607 712.424 96.462C712.601 96.154 712.89 95.9067 713.292 95.72C713.693 95.524 714.23 95.426 714.902 95.426H717.59V95.972H714.916C714.16 95.972 713.628 96.112 713.32 96.392C713.021 96.672 712.872 97.022 712.872 97.442C712.872 97.9087 713.049 98.282 713.404 98.562C713.758 98.842 714.258 98.982 714.902 98.982C715.518 98.982 716.036 98.842 716.456 98.562C716.885 98.282 717.202 97.876 717.408 97.344L717.604 97.82C717.408 98.352 717.072 98.7767 716.596 99.094C716.129 99.402 715.532 99.556 714.804 99.556ZM723.62 99.556C722.976 99.556 722.481 99.3787 722.136 99.024C721.8 98.6693 721.632 98.184 721.632 97.568V90.596H722.332V97.498C722.332 97.9647 722.448 98.324 722.682 98.576C722.915 98.828 723.251 98.954 723.69 98.954C724.147 98.954 724.525 98.8187 724.824 98.548L725.118 99.038C724.931 99.2153 724.702 99.346 724.432 99.43C724.17 99.514 723.9 99.556 723.62 99.556ZM720.288 92.794V92.192H724.656V92.794H720.288ZM730.278 99.556C729.541 99.556 728.888 99.3973 728.318 99.08C727.758 98.7627 727.315 98.324 726.988 97.764C726.671 97.204 726.512 96.5647 726.512 95.846C726.512 95.118 726.662 94.4787 726.96 93.928C727.268 93.368 727.688 92.9293 728.22 92.612C728.752 92.2947 729.35 92.136 730.012 92.136C730.675 92.136 731.268 92.29 731.79 92.598C732.322 92.906 732.738 93.34 733.036 93.9C733.344 94.4507 733.498 95.09 733.498 95.818C733.498 95.846 733.494 95.8787 733.484 95.916C733.484 95.944 733.484 95.9767 733.484 96.014H727.03V95.468H733.106L732.826 95.734C732.836 95.1647 732.714 94.656 732.462 94.208C732.22 93.7507 731.888 93.396 731.468 93.144C731.048 92.8827 730.563 92.752 730.012 92.752C729.471 92.752 728.986 92.8827 728.556 93.144C728.136 93.396 727.805 93.7507 727.562 94.208C727.32 94.656 727.198 95.1693 727.198 95.748V95.874C727.198 96.4713 727.329 97.0033 727.59 97.47C727.861 97.9273 728.23 98.2867 728.696 98.548C729.163 98.8 729.695 98.926 730.292 98.926C730.759 98.926 731.193 98.842 731.594 98.674C732.005 98.506 732.35 98.2493 732.63 97.904L733.036 98.366C732.719 98.758 732.318 99.0567 731.832 99.262C731.356 99.458 730.838 99.556 730.278 99.556ZM738.012 99.556C737.405 99.556 736.836 99.4673 736.304 99.29C735.781 99.1127 735.375 98.8887 735.086 98.618L735.408 98.058C735.688 98.3007 736.061 98.5107 736.528 98.688C736.994 98.856 737.498 98.94 738.04 98.94C738.805 98.94 739.356 98.814 739.692 98.562C740.028 98.31 740.196 97.9787 740.196 97.568C740.196 97.2693 740.107 97.036 739.93 96.868C739.762 96.6907 739.533 96.5553 739.244 96.462C738.954 96.3687 738.637 96.294 738.292 96.238C737.946 96.1727 737.601 96.1027 737.256 96.028C736.91 95.9533 736.593 95.846 736.304 95.706C736.014 95.566 735.781 95.3747 735.604 95.132C735.436 94.88 735.352 94.5487 735.352 94.138C735.352 93.7647 735.454 93.4287 735.66 93.13C735.865 92.8313 736.173 92.5933 736.584 92.416C736.994 92.2293 737.508 92.136 738.124 92.136C738.581 92.136 739.038 92.2013 739.496 92.332C739.962 92.4627 740.34 92.6353 740.63 92.85L740.308 93.41C740 93.1767 739.654 93.0087 739.272 92.906C738.889 92.8033 738.502 92.752 738.11 92.752C737.4 92.752 736.878 92.8827 736.542 93.144C736.215 93.4053 736.052 93.732 736.052 94.124C736.052 94.432 736.136 94.6793 736.304 94.866C736.481 95.0433 736.714 95.1833 737.004 95.286C737.293 95.3793 737.61 95.4587 737.956 95.524C738.301 95.58 738.646 95.6453 738.992 95.72C739.337 95.7947 739.654 95.902 739.944 96.042C740.233 96.1727 740.462 96.3593 740.63 96.602C740.807 96.8353 740.896 97.1527 740.896 97.554C740.896 97.9553 740.784 98.3053 740.56 98.604C740.345 98.9027 740.023 99.136 739.594 99.304C739.164 99.472 738.637 99.556 738.012 99.556Z" fill="#FAFAFA"/>
<path d="M636.611 48.6992V68H634.172V51.7446L629.254 53.5376V51.3359L636.229 48.6992H636.611ZM653.143 48.7783H653.354V50.8481H653.143C651.851 50.8481 650.77 51.0591 649.9 51.481C649.03 51.894 648.34 52.4521 647.83 53.1553C647.32 53.8496 646.951 54.6318 646.723 55.502C646.503 56.3721 646.393 57.2554 646.393 58.1519V60.9731C646.393 61.8257 646.494 62.5815 646.696 63.2407C646.898 63.8911 647.175 64.4404 647.527 64.8887C647.878 65.3369 648.274 65.6753 648.713 65.9038C649.162 66.1323 649.627 66.2466 650.111 66.2466C650.673 66.2466 651.174 66.1411 651.614 65.9302C652.053 65.7104 652.422 65.4072 652.721 65.0205C653.029 64.625 653.262 64.1592 653.42 63.623C653.578 63.0869 653.657 62.498 653.657 61.8564C653.657 61.2852 653.587 60.7358 653.446 60.2085C653.306 59.6724 653.09 59.1978 652.8 58.7847C652.51 58.3628 652.146 58.0332 651.706 57.7959C651.275 57.5498 650.761 57.4268 650.164 57.4268C649.487 57.4268 648.854 57.5938 648.265 57.9277C647.685 58.2529 647.206 58.6836 646.828 59.2197C646.459 59.7471 646.248 60.3228 646.195 60.9468L644.903 60.9336C645.026 59.9492 645.255 59.1099 645.589 58.4155C645.932 57.7124 646.354 57.1411 646.854 56.7017C647.364 56.2534 647.931 55.9282 648.555 55.7261C649.188 55.5151 649.856 55.4097 650.559 55.4097C651.517 55.4097 652.343 55.5898 653.038 55.9502C653.732 56.3105 654.303 56.7939 654.751 57.4004C655.2 57.998 655.529 58.6748 655.74 59.4307C655.96 60.1777 656.07 60.9468 656.07 61.7378C656.07 62.6431 655.942 63.4912 655.688 64.2822C655.433 65.0732 655.05 65.7676 654.541 66.3652C654.04 66.9629 653.42 67.4287 652.682 67.7627C651.943 68.0967 651.086 68.2637 650.111 68.2637C649.074 68.2637 648.168 68.0527 647.395 67.6309C646.622 67.2002 645.98 66.6289 645.47 65.917C644.96 65.2051 644.578 64.4141 644.323 63.5439C644.068 62.6738 643.941 61.7905 643.941 60.894V59.7471C643.941 58.3936 644.077 57.0664 644.35 55.7656C644.622 54.4648 645.092 53.2871 645.76 52.2324C646.437 51.1777 647.373 50.3384 648.568 49.7144C649.764 49.0903 651.289 48.7783 653.143 48.7783Z" fill="#FAFAFA"/>
<path d="M946.077 72.5004V85.3576H939.649V72.5004H946.077ZM955.72 59.6433V85.3576H949.291V59.6433H955.72ZM981.434 88.5718V91.7861H930.006V53.2147H933.22V88.5718H981.434ZM965.363 66.0718V85.3576H958.934V66.0718H965.363ZM975.006 56.429V85.3576H968.577V56.429H975.006Z" fill="#FAFAFA"/>
<path d="M1017.07 99.5L1021.58 89.7H1022.29L1026.8 99.5H1026.03L1021.77 90.148H1022.08L1017.84 99.5H1017.07ZM1018.72 96.742L1018.96 96.14H1024.83L1025.06 96.742H1018.72ZM1029 99.5V91.072C1029 90.4653 1029.17 89.98 1029.51 89.616C1029.87 89.2427 1030.37 89.056 1031.03 89.056C1031.3 89.056 1031.56 89.098 1031.82 89.182C1032.08 89.2567 1032.3 89.3733 1032.47 89.532L1032.19 90.064C1032.05 89.924 1031.88 89.8213 1031.68 89.756C1031.49 89.6907 1031.28 89.658 1031.05 89.658C1030.61 89.658 1030.26 89.784 1030.03 90.036C1029.8 90.2787 1029.68 90.6427 1029.68 91.128V92.36L1029.7 92.696V99.5H1029ZM1027.65 92.794V92.192H1032.02V92.794H1027.65ZM1034.09 99.5V91.072C1034.09 90.4653 1034.26 89.98 1034.61 89.616C1034.96 89.2427 1035.47 89.056 1036.12 89.056C1036.39 89.056 1036.66 89.098 1036.92 89.182C1037.18 89.2567 1037.39 89.3733 1037.56 89.532L1037.28 90.064C1037.14 89.924 1036.97 89.8213 1036.78 89.756C1036.58 89.6907 1036.37 89.658 1036.15 89.658C1035.7 89.658 1035.36 89.784 1035.12 90.036C1034.89 90.2787 1034.77 90.6427 1034.77 91.128V92.36L1034.79 92.696V99.5H1034.09ZM1032.74 92.794V92.192H1037.11V92.794H1032.74ZM1038.54 99.5V92.192H1039.24V99.5H1038.54ZM1038.89 90.414C1038.73 90.414 1038.6 90.358 1038.48 90.246C1038.37 90.134 1038.32 90.0033 1038.32 89.854C1038.32 89.6953 1038.37 89.56 1038.48 89.448C1038.6 89.336 1038.73 89.28 1038.89 89.28C1039.06 89.28 1039.19 89.336 1039.3 89.448C1039.41 89.5507 1039.46 89.6813 1039.46 89.84C1039.46 89.9987 1039.41 90.134 1039.3 90.246C1039.19 90.358 1039.06 90.414 1038.89 90.414ZM1042.69 99.5V89.112H1043.39V99.5H1042.69ZM1051.45 99.5V97.834L1051.42 97.582V94.838C1051.42 94.1567 1051.23 93.6387 1050.86 93.284C1050.5 92.9293 1049.96 92.752 1049.25 92.752C1048.75 92.752 1048.28 92.8407 1047.84 93.018C1047.41 93.186 1047.04 93.4053 1046.73 93.676L1046.38 93.172C1046.75 92.8453 1047.18 92.5933 1047.7 92.416C1048.21 92.2293 1048.75 92.136 1049.31 92.136C1050.21 92.136 1050.91 92.3647 1051.39 92.822C1051.88 93.2793 1052.12 93.9607 1052.12 94.866V99.5H1051.45ZM1048.82 99.556C1048.28 99.556 1047.8 99.472 1047.4 99.304C1047.01 99.1267 1046.71 98.8793 1046.49 98.562C1046.29 98.2447 1046.19 97.8807 1046.19 97.47C1046.19 97.0967 1046.27 96.7607 1046.44 96.462C1046.61 96.154 1046.9 95.9067 1047.31 95.72C1047.71 95.524 1048.24 95.426 1048.92 95.426H1051.6V95.972H1048.93C1048.17 95.972 1047.64 96.112 1047.33 96.392C1047.03 96.672 1046.89 97.022 1046.89 97.442C1046.89 97.9087 1047.06 98.282 1047.42 98.562C1047.77 98.842 1048.27 98.982 1048.92 98.982C1049.53 98.982 1050.05 98.842 1050.47 98.562C1050.9 98.282 1051.22 97.876 1051.42 97.344L1051.62 97.82C1051.42 98.352 1051.09 98.7767 1050.61 99.094C1050.14 99.402 1049.55 99.556 1048.82 99.556ZM1057.63 99.556C1056.99 99.556 1056.49 99.3787 1056.15 99.024C1055.81 98.6693 1055.65 98.184 1055.65 97.568V90.596H1056.35V97.498C1056.35 97.9647 1056.46 98.324 1056.7 98.576C1056.93 98.828 1057.26 98.954 1057.7 98.954C1058.16 98.954 1058.54 98.8187 1058.84 98.548L1059.13 99.038C1058.94 99.2153 1058.72 99.346 1058.45 99.43C1058.18 99.514 1057.91 99.556 1057.63 99.556ZM1054.3 92.794V92.192H1058.67V92.794H1054.3ZM1064.29 99.556C1063.55 99.556 1062.9 99.3973 1062.33 99.08C1061.77 98.7627 1061.33 98.324 1061 97.764C1060.68 97.204 1060.53 96.5647 1060.53 95.846C1060.53 95.118 1060.68 94.4787 1060.97 93.928C1061.28 93.368 1061.7 92.9293 1062.23 92.612C1062.77 92.2947 1063.36 92.136 1064.03 92.136C1064.69 92.136 1065.28 92.29 1065.8 92.598C1066.34 92.906 1066.75 93.34 1067.05 93.9C1067.36 94.4507 1067.51 95.09 1067.51 95.818C1067.51 95.846 1067.51 95.8787 1067.5 95.916C1067.5 95.944 1067.5 95.9767 1067.5 96.014H1061.04V95.468H1067.12L1066.84 95.734C1066.85 95.1647 1066.73 94.656 1066.48 94.208C1066.23 93.7507 1065.9 93.396 1065.48 93.144C1065.06 92.8827 1064.58 92.752 1064.03 92.752C1063.48 92.752 1063 92.8827 1062.57 93.144C1062.15 93.396 1061.82 93.7507 1061.58 94.208C1061.33 94.656 1061.21 95.1693 1061.21 95.748V95.874C1061.21 96.4713 1061.34 97.0033 1061.6 97.47C1061.87 97.9273 1062.24 98.2867 1062.71 98.548C1063.18 98.8 1063.71 98.926 1064.31 98.926C1064.77 98.926 1065.21 98.842 1065.61 98.674C1066.02 98.506 1066.36 98.2493 1066.64 97.904L1067.05 98.366C1066.73 98.758 1066.33 99.0567 1065.85 99.262C1065.37 99.458 1064.85 99.556 1064.29 99.556ZM1072.99 99.556C1072.31 99.556 1071.69 99.402 1071.14 99.094C1070.6 98.7767 1070.17 98.338 1069.86 97.778C1069.54 97.218 1069.38 96.574 1069.38 95.846C1069.38 95.1087 1069.54 94.4647 1069.86 93.914C1070.17 93.354 1070.6 92.92 1071.14 92.612C1071.69 92.2947 1072.31 92.136 1072.99 92.136C1073.64 92.136 1074.21 92.2853 1074.73 92.584C1075.25 92.8827 1075.66 93.3073 1075.96 93.858C1076.27 94.4087 1076.42 95.0713 1076.42 95.846C1076.42 96.602 1076.27 97.26 1075.97 97.82C1075.67 98.38 1075.26 98.8093 1074.74 99.108C1074.23 99.4067 1073.64 99.556 1072.99 99.556ZM1073.03 98.926C1073.59 98.926 1074.09 98.8 1074.53 98.548C1074.98 98.2867 1075.33 97.9227 1075.58 97.456C1075.84 96.9893 1075.97 96.4527 1075.97 95.846C1075.97 95.23 1075.84 94.6933 1075.58 94.236C1075.33 93.7693 1074.98 93.41 1074.53 93.158C1074.09 92.8967 1073.59 92.766 1073.03 92.766C1072.47 92.766 1071.97 92.8967 1071.52 93.158C1071.08 93.41 1070.73 93.7693 1070.47 94.236C1070.22 94.6933 1070.09 95.23 1070.09 95.846C1070.09 96.4527 1070.22 96.9893 1070.47 97.456C1070.73 97.9227 1071.08 98.2867 1071.52 98.548C1071.97 98.8 1072.47 98.926 1073.03 98.926ZM1075.99 99.5V97.106L1076.11 95.832L1075.97 94.558V89.112H1076.67V99.5H1075.99ZM1093.32 92.136C1093.91 92.136 1094.42 92.2527 1094.85 92.486C1095.28 92.71 1095.63 93.0553 1095.87 93.522C1096.11 93.9793 1096.23 94.5487 1096.23 95.23V99.5H1095.53V95.286C1095.53 94.4647 1095.33 93.8393 1094.93 93.41C1094.53 92.9807 1093.97 92.766 1093.25 92.766C1092.7 92.766 1092.22 92.8827 1091.82 93.116C1091.42 93.3493 1091.11 93.676 1090.9 94.096C1090.68 94.516 1090.58 95.02 1090.58 95.608V99.5H1089.88V95.286C1089.88 94.4647 1089.68 93.8393 1089.27 93.41C1088.87 92.9807 1088.31 92.766 1087.59 92.766C1087.04 92.766 1086.57 92.8827 1086.17 93.116C1085.76 93.3493 1085.46 93.676 1085.24 94.096C1085.03 94.516 1084.92 95.02 1084.92 95.608V99.5H1084.22V92.192H1084.89V94.208L1084.79 93.984C1085.01 93.4147 1085.37 92.9667 1085.87 92.64C1086.38 92.304 1086.98 92.136 1087.69 92.136C1088.42 92.136 1089.03 92.3227 1089.53 92.696C1090.03 93.06 1090.35 93.606 1090.48 94.334L1090.24 94.236C1090.44 93.6107 1090.8 93.1067 1091.35 92.724C1091.89 92.332 1092.55 92.136 1093.32 92.136ZM1102.59 99.556C1101.85 99.556 1101.2 99.3973 1100.63 99.08C1100.07 98.7627 1099.63 98.324 1099.3 97.764C1098.98 97.204 1098.82 96.5647 1098.82 95.846C1098.82 95.118 1098.97 94.4787 1099.27 93.928C1099.58 93.368 1100 92.9293 1100.53 92.612C1101.06 92.2947 1101.66 92.136 1102.32 92.136C1102.99 92.136 1103.58 92.29 1104.1 92.598C1104.63 92.906 1105.05 93.34 1105.35 93.9C1105.66 94.4507 1105.81 95.09 1105.81 95.818C1105.81 95.846 1105.81 95.8787 1105.8 95.916C1105.8 95.944 1105.8 95.9767 1105.8 96.014H1099.34V95.468H1105.42L1105.14 95.734C1105.15 95.1647 1105.03 94.656 1104.77 94.208C1104.53 93.7507 1104.2 93.396 1103.78 93.144C1103.36 92.8827 1102.88 92.752 1102.32 92.752C1101.78 92.752 1101.3 92.8827 1100.87 93.144C1100.45 93.396 1100.12 93.7507 1099.87 94.208C1099.63 94.656 1099.51 95.1693 1099.51 95.748V95.874C1099.51 96.4713 1099.64 97.0033 1099.9 97.47C1100.17 97.9273 1100.54 98.2867 1101.01 98.548C1101.48 98.8 1102.01 98.926 1102.6 98.926C1103.07 98.926 1103.51 98.842 1103.91 98.674C1104.32 98.506 1104.66 98.2493 1104.94 97.904L1105.35 98.366C1105.03 98.758 1104.63 99.0567 1104.14 99.262C1103.67 99.458 1103.15 99.556 1102.59 99.556ZM1117.58 92.136C1118.16 92.136 1118.67 92.2527 1119.1 92.486C1119.54 92.71 1119.88 93.0553 1120.12 93.522C1120.37 93.9793 1120.49 94.5487 1120.49 95.23V99.5H1119.79V95.286C1119.79 94.4647 1119.59 93.8393 1119.19 93.41C1118.78 92.9807 1118.22 92.766 1117.51 92.766C1116.96 92.766 1116.48 92.8827 1116.08 93.116C1115.68 93.3493 1115.37 93.676 1115.15 94.096C1114.94 94.516 1114.83 95.02 1114.83 95.608V99.5H1114.13V95.286C1114.13 94.4647 1113.93 93.8393 1113.53 93.41C1113.13 92.9807 1112.57 92.766 1111.85 92.766C1111.3 92.766 1110.82 92.8827 1110.42 93.116C1110.02 93.3493 1109.71 93.676 1109.5 94.096C1109.28 94.516 1109.18 95.02 1109.18 95.608V99.5H1108.48V92.192H1109.15V94.208L1109.05 93.984C1109.26 93.4147 1109.62 92.9667 1110.13 92.64C1110.63 92.304 1111.24 92.136 1111.95 92.136C1112.68 92.136 1113.29 92.3227 1113.78 92.696C1114.29 93.06 1114.6 93.606 1114.73 94.334L1114.5 94.236C1114.69 93.6107 1115.06 93.1067 1115.6 92.724C1116.14 92.332 1116.8 92.136 1117.58 92.136ZM1127.55 99.556C1126.9 99.556 1126.32 99.4067 1125.8 99.108C1125.28 98.8093 1124.87 98.38 1124.56 97.82C1124.27 97.26 1124.12 96.602 1124.12 95.846C1124.12 95.0713 1124.27 94.4087 1124.56 93.858C1124.87 93.3073 1125.28 92.8827 1125.8 92.584C1126.32 92.2853 1126.9 92.136 1127.55 92.136C1128.24 92.136 1128.85 92.2947 1129.39 92.612C1129.95 92.92 1130.37 93.354 1130.68 93.914C1131 94.4647 1131.16 95.1087 1131.16 95.846C1131.16 96.574 1131 97.218 1130.68 97.778C1130.37 98.338 1129.95 98.7767 1129.39 99.094C1128.85 99.402 1128.24 99.556 1127.55 99.556ZM1123.88 99.5V89.112H1124.58V94.558L1124.44 95.832L1124.55 97.106V99.5H1123.88ZM1127.5 98.926C1128.06 98.926 1128.57 98.8 1129.02 98.548C1129.46 98.2867 1129.81 97.9227 1130.07 97.456C1130.33 96.9893 1130.46 96.4527 1130.46 95.846C1130.46 95.23 1130.33 94.6933 1130.07 94.236C1129.81 93.7693 1129.46 93.41 1129.02 93.158C1128.57 92.8967 1128.06 92.766 1127.5 92.766C1126.94 92.766 1126.44 92.8967 1125.99 93.158C1125.55 93.41 1125.2 93.7693 1124.94 94.236C1124.69 94.6933 1124.56 95.23 1124.56 95.846C1124.56 96.4527 1124.69 96.9893 1124.94 97.456C1125.2 97.9227 1125.55 98.2867 1125.99 98.548C1126.44 98.8 1126.94 98.926 1127.5 98.926ZM1136.79 99.556C1136.06 99.556 1135.4 99.3973 1134.83 99.08C1134.27 98.7627 1133.83 98.324 1133.5 97.764C1133.19 97.204 1133.03 96.5647 1133.03 95.846C1133.03 95.118 1133.18 94.4787 1133.48 93.928C1133.78 93.368 1134.2 92.9293 1134.74 92.612C1135.27 92.2947 1135.87 92.136 1136.53 92.136C1137.19 92.136 1137.78 92.29 1138.31 92.598C1138.84 92.906 1139.25 93.34 1139.55 93.9C1139.86 94.4507 1140.01 95.09 1140.01 95.818C1140.01 95.846 1140.01 95.8787 1140 95.916C1140 95.944 1140 95.9767 1140 96.014H1133.55V95.468H1139.62L1139.34 95.734C1139.35 95.1647 1139.23 94.656 1138.98 94.208C1138.74 93.7507 1138.4 93.396 1137.98 93.144C1137.56 92.8827 1137.08 92.752 1136.53 92.752C1135.99 92.752 1135.5 92.8827 1135.07 93.144C1134.65 93.396 1134.32 93.7507 1134.08 94.208C1133.84 94.656 1133.71 95.1693 1133.71 95.748V95.874C1133.71 96.4713 1133.84 97.0033 1134.11 97.47C1134.38 97.9273 1134.75 98.2867 1135.21 98.548C1135.68 98.8 1136.21 98.926 1136.81 98.926C1137.27 98.926 1137.71 98.842 1138.11 98.674C1138.52 98.506 1138.87 98.2493 1139.15 97.904L1139.55 98.366C1139.23 98.758 1138.83 99.0567 1138.35 99.262C1137.87 99.458 1137.35 99.556 1136.79 99.556ZM1142.68 99.5V92.192H1143.35V94.194L1143.28 93.97C1143.49 93.382 1143.83 92.9293 1144.32 92.612C1144.8 92.2947 1145.41 92.136 1146.14 92.136V92.822C1146.11 92.822 1146.08 92.822 1146.05 92.822C1146.03 92.8127 1146 92.808 1145.97 92.808C1145.16 92.808 1144.52 93.0647 1144.07 93.578C1143.61 94.082 1143.38 94.7867 1143.38 95.692V99.5H1142.68ZM1150.5 99.556C1149.89 99.556 1149.32 99.4673 1148.79 99.29C1148.27 99.1127 1147.86 98.8887 1147.57 98.618L1147.89 98.058C1148.17 98.3007 1148.55 98.5107 1149.01 98.688C1149.48 98.856 1149.98 98.94 1150.52 98.94C1151.29 98.94 1151.84 98.814 1152.18 98.562C1152.51 98.31 1152.68 97.9787 1152.68 97.568C1152.68 97.2693 1152.59 97.036 1152.41 96.868C1152.25 96.6907 1152.02 96.5553 1151.73 96.462C1151.44 96.3687 1151.12 96.294 1150.78 96.238C1150.43 96.1727 1150.09 96.1027 1149.74 96.028C1149.39 95.9533 1149.08 95.846 1148.79 95.706C1148.5 95.566 1148.27 95.3747 1148.09 95.132C1147.92 94.88 1147.84 94.5487 1147.84 94.138C1147.84 93.7647 1147.94 93.4287 1148.14 93.13C1148.35 92.8313 1148.66 92.5933 1149.07 92.416C1149.48 92.2293 1149.99 92.136 1150.61 92.136C1151.07 92.136 1151.52 92.2013 1151.98 92.332C1152.45 92.4627 1152.82 92.6353 1153.11 92.85L1152.79 93.41C1152.48 93.1767 1152.14 93.0087 1151.76 92.906C1151.37 92.8033 1150.99 92.752 1150.59 92.752C1149.88 92.752 1149.36 92.8827 1149.03 93.144C1148.7 93.4053 1148.54 93.732 1148.54 94.124C1148.54 94.432 1148.62 94.6793 1148.79 94.866C1148.97 95.0433 1149.2 95.1833 1149.49 95.286C1149.78 95.3793 1150.09 95.4587 1150.44 95.524C1150.79 95.58 1151.13 95.6453 1151.48 95.72C1151.82 95.7947 1152.14 95.902 1152.43 96.042C1152.72 96.1727 1152.95 96.3593 1153.11 96.602C1153.29 96.8353 1153.38 97.1527 1153.38 97.554C1153.38 97.9553 1153.27 98.3053 1153.04 98.604C1152.83 98.9027 1152.51 99.136 1152.08 99.304C1151.65 99.472 1151.12 99.556 1150.5 99.556Z" fill="#FAFAFA"/>
<path d="M1031.17 65.9961V68H1018.61V66.2466L1024.9 59.2461C1025.67 58.3848 1026.27 57.6553 1026.69 57.0576C1027.12 56.4512 1027.42 55.9106 1027.59 55.436C1027.76 54.9526 1027.85 54.4604 1027.85 53.9595C1027.85 53.3267 1027.72 52.7554 1027.45 52.2456C1027.2 51.7271 1026.82 51.314 1026.32 51.0063C1025.82 50.6987 1025.21 50.5449 1024.5 50.5449C1023.65 50.5449 1022.94 50.7119 1022.37 51.0459C1021.8 51.3711 1021.38 51.8281 1021.1 52.417C1020.82 53.0059 1020.68 53.6826 1020.68 54.4473H1018.24C1018.24 53.3662 1018.48 52.3774 1018.95 51.481C1019.43 50.5845 1020.13 49.8726 1021.06 49.3452C1021.99 48.8091 1023.14 48.541 1024.5 48.541C1025.71 48.541 1026.75 48.7563 1027.61 49.187C1028.47 49.6089 1029.13 50.2065 1029.59 50.98C1030.06 51.7446 1030.29 52.6411 1030.29 53.6694C1030.29 54.2319 1030.19 54.8032 1030 55.3833C1029.81 55.9546 1029.56 56.5259 1029.22 57.0972C1028.9 57.6685 1028.51 58.231 1028.07 58.7847C1027.64 59.3384 1027.18 59.8833 1026.69 60.4194L1021.55 65.9961H1031.17ZM1041.8 48.6992V68H1039.36V51.7446L1034.44 53.5376V51.3359L1041.42 48.6992H1041.8Z" fill="#FAFAFA"/>
</svg>
