<svg width="370" height="27" viewBox="0 0 370 27" fill="none" xmlns="http://www.w3.org/2000/svg">
<rect y="2" width="369" height="24" fill="white"/>
<rect x="334.463" y="1.94434" width="2.03276" height="42.4283" transform="rotate(-54.0259 334.463 1.94434)" fill="#F7F7F7"/>
<rect x="353" y="2" width="16" height="12" fill="#F7F7F7"/>
<rect x="343" y="2" width="10" height="6" fill="#F7F7F7"/>
<rect x="345" y="7" width="8" height="2" fill="#F7F7F7"/>
<rect x="347" y="9" width="6" height="2" fill="#F7F7F7"/>
<rect x="350" y="11" width="3" height="2" fill="#F7F7F7"/>
<rect x="338" y="2" width="6" height="2" fill="#F7F7F7"/>
<rect x="340" y="3" width="4" height="3" fill="#F7F7F7"/>
<rect x="367" y="14" width="2" height="11" fill="#F7F7F7"/>
<rect x="364" y="14" width="3" height="9" fill="#F7F7F7"/>
<rect x="361" y="14" width="3" height="7" fill="#F7F7F7"/>
<rect x="358" y="14" width="3" height="5" fill="#F7F7F7"/>
<rect x="356" y="14" width="2" height="3" fill="#F7F7F7"/>
<rect x="354" y="14" width="2" height="1" fill="#F7F7F7"/>
</svg>
