<svg width="475" height="27" viewBox="0 0 475 27" fill="none" xmlns="http://www.w3.org/2000/svg">
<rect x="105" y="2" width="369" height="24" fill="white"/>
<rect x="439.463" y="1.94434" width="2.03276" height="42.4283" transform="rotate(-54.0259 439.463 1.94434)" fill="#F7F7F7"/>
<rect x="458" y="2" width="16" height="12" fill="#F7F7F7"/>
<rect x="448" y="2" width="10" height="6" fill="#F7F7F7"/>
<rect x="450" y="7" width="8" height="2" fill="#F7F7F7"/>
<rect x="452" y="9" width="6" height="2" fill="#F7F7F7"/>
<rect x="455" y="11" width="3" height="2" fill="#F7F7F7"/>
<rect x="443" y="2" width="6" height="2" fill="#F7F7F7"/>
<rect x="445" y="3" width="4" height="3" fill="#F7F7F7"/>
<rect x="472" y="14" width="2" height="11" fill="#F7F7F7"/>
<rect x="469" y="14" width="3" height="9" fill="#F7F7F7"/>
<rect x="466" y="14" width="3" height="7" fill="#F7F7F7"/>
<rect x="463" y="14" width="3" height="5" fill="#F7F7F7"/>
<rect x="461" y="14" width="2" height="3" fill="#F7F7F7"/>
<rect x="459" y="14" width="2" height="1" fill="#F7F7F7"/>
<rect y="2" width="105" height="24" fill="white"/>
</svg>
